AdventPro-bld_wd_it.ufo
<glyph name="numbersign" format="1">
  <advance width="895" height="962"/>
  <unicode hex="0023"/>
  <outline>
    <contour>
      <point x="712" y="270" type="line"/>
      <point x="917" y="270" type="line"/>
      <point x="895" y="167" type="line"/>
      <point x="652" y="167" type="line"/>
      <point x="559" y="0" type="line"/>
      <point x="439" y="0" type="line"/>
      <point x="531" y="167" type="line"/>
      <point x="317" y="167" type="line"/>
      <point x="223" y="0" type="line"/>
      <point x="101" y="0" type="line"/>
      <point x="198" y="167" type="line"/>
      <point x="69" y="167" type="line"/>
      <point x="91" y="270" type="line"/>
      <point x="256" y="270" type="line"/>
      <point x="306" y="357" type="line"/>
      <point x="110" y="357" type="line"/>
      <point x="134" y="471" type="line"/>
      <point x="371" y="471" type="line"/>
      <point x="499" y="700" type="line"/>
      <point x="620" y="700" type="line"/>
      <point x="490" y="471" type="line"/>
      <point x="704" y="471" type="line"/>
      <point x="834" y="700" type="line"/>
      <point x="956" y="700" type="line"/>
      <point x="825" y="471" type="line"/>
      <point x="960" y="471" type="line"/>
      <point x="936" y="357" type="line"/>
      <point x="761" y="357" type="line"/>
    </contour>
    <contour>
      <point x="590" y="270" type="line"/>
      <point x="641" y="357" type="line"/>
      <point x="426" y="357" type="line"/>
      <point x="376" y="270" type="line"/>
    </contour>
  </outline>
</glyph>
<glyph name="parenright" format="2">
  <advance width="318"/>
  <unicode hex="0029"/>
  <outline>
    <contour>
      <point x="187" y="741" type="line"/>
      <point x="208.6" y="728.3"/>
      <point x="293" y="704"/>
      <point x="272" y="608" type="curve" smooth="yes"/>
      <point x="165" y="104" type="line" smooth="yes"/>
      <point x="143" y="-1"/>
      <point x="31.1081" y="-29.6916"/>
      <point x="16" y="-35" type="curve"/>
      <point x="40" y="-117" type="line"/>
      <point x="201" y="-60"/>
      <point x="260" y="13"/>
      <point x="277" y="95" type="curve" smooth="yes"/>
      <point x="386" y="606" type="line" smooth="yes"/>
      <point x="403" y="685"/>
      <point x="368" y="767"/>
      <point x="241" y="819" type="curve"/>
    </contour>
  </outline>
</glyph>
<glyph name="comma" format="2">
  <advance width="187"/>
  <unicode hex="002C"/>
  <outline>
    <contour>
      <point x="47" y="-66" type="line"/>
      <point x="62" y="-48"/>
      <point x="69" y="-28"/>
      <point x="77" y="-8" type="curve"/>
      <point x="53" y="-2"/>
      <point x="39" y="22"/>
      <point x="45" y="50" type="curve" smooth="yes"/>
      <point x="51" y="82"/>
      <point x="84" y="110"/>
      <point x="118" y="110" type="curve" smooth="yes"/>
      <point x="150" y="110"/>
      <point x="170" y="82"/>
      <point x="164" y="50" type="curve"/>
      <point x="145" y="-41"/>
      <point x="66" y="-83"/>
      <point x="67" y="-83" type="curve"/>
    </contour>
  </outline>
</glyph>
<glyph name="hyphen" format="2">
  <advance width="394"/>
  <unicode hex="002D"/>
  <outline>
    <contour>
      <point x="100" y="307" type="line"/>
      <point x="123" y="414" type="line"/>
      <point x="443" y="414" type="line"/>
      <point x="420" y="307" type="line"/>
    </contour>
  </outline>
</glyph>
<glyph name="two" format="2">
  <advance width="628" height="962"/>
  <unicode hex="0032"/>
  <outline>
    <contour>
      <point x="180" y="590" type="line"/>
      <point x="240" y="665"/>
      <point x="353" y="710"/>
      <point x="473" y="710" type="curve" smooth="yes"/>
      <point x="608" y="710"/>
      <point x="727" y="654"/>
      <point x="704" y="546" type="curve" smooth="yes"/>
      <point x="688" y="472"/>
      <point x="633" y="426"/>
      <point x="562" y="373" type="curve" smooth="yes"/>
      <point x="201" y="101" type="line"/>
      <point x="613" y="101" type="line"/>
      <point x="592" y="0" type="line"/>
      <point x="31" y="0" type="line"/>
      <point x="53" y="102" type="line"/>
      <point x="473" y="423" type="line" smooth="yes"/>
      <point x="547" y="479"/>
      <point x="577" y="510"/>
      <point x="584" y="539" type="curve" smooth="yes"/>
      <point x="593" y="584"/>
      <point x="527" y="610"/>
      <point x="451" y="610" type="curve" smooth="yes"/>
      <point x="364" y="610"/>
      <point x="287" y="581"/>
      <point x="249" y="535" type="curve"/>
    </contour>
  </outline>
</glyph>
<glyph name="less" format="2">
  <advance width="618"/>
  <unicode hex="003C"/>
  <outline>
    <contour>
      <point x="115" y="359" type="line"/>
      <point x="594" y="638" type="line"/>
      <point x="690" y="567" type="line"/>
      <point x="327" y="359" type="line"/>
      <point x="595" y="147" type="line"/>
      <point x="475" y="80" type="line"/>
    </contour>
  </outline>
</glyph>
<glyph name="C" format="2">
  <advance width="608"/>
  <unicode hex="0043"/>
  <outline>
    <contour>
      <point x="632" y="584" type="line"/>
      <point x="595" y="594"/>
      <point x="531" y="601"/>
      <point x="485" y="601" type="curve" smooth="yes"/>
      <point x="356" y="601"/>
      <point x="274" y="590"/>
      <point x="255" y="498" type="curve" smooth="yes"/>
      <point x="195" y="216" type="line" smooth="yes"/>
      <point x="173" y="114"/>
      <point x="244" y="101"/>
      <point x="364" y="101" type="curve" smooth="yes"/>
      <point x="456" y="101"/>
      <point x="564" y="123"/>
      <point x="582" y="128" type="curve"/>
      <point x="584" y="23" type="line"/>
      <point x="492" y="1"/>
      <point x="408" y="-12"/>
      <point x="331" y="-12" type="curve" smooth="yes"/>
      <point x="135" y="-12"/>
      <point x="46" y="46"/>
      <point x="75" y="182" type="curve" smooth="yes"/>
      <point x="147" y="521" type="line" smooth="yes"/>
      <point x="177" y="663"/>
      <point x="303" y="712"/>
      <point x="478" y="712" type="curve" smooth="yes"/>
      <point x="550" y="712"/>
      <point x="620" y="701"/>
      <point x="687" y="677" type="curve"/>
    </contour>
  </outline>
</glyph>
<glyph name="E" format="2">
  <advance width="580"/>
  <unicode hex="0045"/>
  <outline>
    <contour>
      <point x="42" y="0" type="line"/>
      <point x="191" y="700" type="line"/>
      <point x="693" y="700" type="line"/>
      <point x="669" y="590" type="line"/>
      <point x="277" y="590" type="line"/>
      <point x="240" y="414" type="line"/>
      <point x="502" y="414" type="line"/>
      <point x="448" y="309" type="line"/>
      <point x="218" y="309" type="line"/>
      <point x="173" y="101" type="line"/>
      <point x="565" y="101" type="line"/>
      <point x="544" y="0" type="line"/>
    </contour>
  </outline>
</glyph>
<glyph name="F" format="1">
  <advance width="563" height="962"/>
  <unicode hex="0046"/>
  <outline>
    <contour>
      <point x="693" y="700" type="line"/>
      <point x="669" y="590" type="line"/>
      <point x="277" y="590" type="line"/>
      <point x="240" y="414" type="line"/>
      <point x="502" y="414" type="line"/>
      <point x="442" y="309" type="line"/>
      <point x="218" y="309" type="line"/>
      <point x="152" y="0" type="line"/>
      <point x="42" y="0" type="line"/>
      <point x="191" y="700" type="line"/>
    </contour>
  </outline>
</glyph>
<glyph name="I" format="1">
  <advance width="260" height="962"/>
  <unicode hex="0049"/>
  <outline>
    <contour>
      <point x="144" y="595" type="line"/>
      <point x="167" y="700" type="line"/>
      <point x="368" y="700" type="line"/>
      <point x="219" y="0" type="line"/>
      <point x="108" y="0" type="line"/>
      <point x="234" y="593" type="line"/>
    </contour>
  </outline>
</glyph>
<glyph name="J" format="1">
  <advance width="313" height="962"/>
  <unicode hex="004A"/>
  <outline>
    <contour>
      <point x="301" y="140" type="line" smooth="yes"/>
      <point x="277" y="26"/>
      <point x="208" y="-33"/>
      <point x="42" y="-37" type="curve"/>
      <point x="38" y="57" type="line"/>
      <point x="144" y="57"/>
      <point x="175" y="91"/>
      <point x="189" y="157" type="curve" smooth="yes"/>
      <point x="282" y="593" type="line"/>
      <point x="159" y="595" type="line"/>
      <point x="182" y="700" type="line"/>
      <point x="420" y="700" type="line"/>
    </contour>
  </outline>
</glyph>
<glyph name="K" format="2">
  <advance width="660"/>
  <unicode hex="004B"/>
  <outline>
    <contour>
      <point x="239" y="403" type="line"/>
      <point x="600" y="700" type="line"/>
      <point x="748" y="700" type="line"/>
      <point x="393" y="407" type="line"/>
      <point x="636" y="0" type="line"/>
      <point x="488" y="0" type="line"/>
      <point x="292" y="326" type="line"/>
      <point x="207" y="255" type="line"/>
      <point x="153" y="0" type="line"/>
      <point x="41" y="0" type="line"/>
      <point x="190" y="700" type="line"/>
      <point x="302" y="700" type="line"/>
    </contour>
  </outline>
</glyph>
<glyph name="O" format="2">
  <advance width="700" height="962"/>
  <unicode hex="004F"/>
  <outline>
    <contour>
      <point x="136" y="483" type="line" smooth="yes"/>
      <point x="167" y="629"/>
      <point x="296" y="717"/>
      <point x="503" y="717" type="curve" smooth="yes"/>
      <point x="712" y="717"/>
      <point x="797" y="628"/>
      <point x="766" y="482" type="curve" smooth="yes"/>
      <point x="708" y="206" type="line" smooth="yes"/>
      <point x="680" y="73"/>
      <point x="554" y="-11"/>
      <point x="347" y="-11" type="curve" smooth="yes"/>
      <point x="151" y="-11"/>
      <point x="47" y="66"/>
      <point x="77" y="206" type="curve" smooth="yes"/>
    </contour>
    <contour>
      <point x="190" y="216" type="line" smooth="yes"/>
      <point x="171" y="126"/>
      <point x="250" y="93"/>
      <point x="368" y="93" type="curve" smooth="yes"/>
      <point x="481" y="93"/>
      <point x="580" y="128"/>
      <point x="599" y="217" type="curve" smooth="yes"/>
      <point x="652" y="464" type="line" smooth="yes"/>
      <point x="675" y="574"/>
      <point x="612" y="607"/>
      <point x="479" y="607" type="curve" smooth="yes"/>
      <point x="355" y="607"/>
      <point x="266" y="575"/>
      <point x="243" y="464" type="curve" smooth="yes"/>
    </contour>
  </outline>
</glyph>
<glyph name="Q" format="2">
  <advance width="700"/>
  <unicode hex="0051"/>
  <outline>
    <component base="O"/>
    <contour>
      <point x="418" y="45" type="line" smooth="yes"/>
      <point x="408" y="1"/>
      <point x="462" y="-22"/>
      <point x="603" y="-22" type="curve"/>
      <point x="562" y="-118" type="line"/>
      <point x="322" y="-118"/>
      <point x="286" y="-50"/>
      <point x="304" y="31" type="curve" smooth="yes"/>
      <point x="334" y="174" type="line"/>
      <point x="445" y="174" type="line"/>
    </contour>
  </outline>
</glyph>
<glyph name="R" format="2">
  <advance width="732" height="962"/>
  <unicode hex="0052"/>
  <outline>
    <contour>
      <point x="558" y="700" type="line" smooth="yes"/>
      <point x="715" y="700"/>
      <point x="831" y="651"/>
      <point x="789" y="453" type="curve" smooth="yes"/>
      <point x="767" y="346"/>
      <point x="703" y="262"/>
      <point x="627" y="224" type="curve"/>
      <point x="703" y="0" type="line"/>
      <point x="570" y="0" type="line"/>
      <point x="505" y="200" type="line"/>
      <point x="486" y="196"/>
      <point x="429" y="196"/>
      <point x="411" y="196" type="curve" smooth="yes"/>
      <point x="194" y="196" type="line"/>
      <point x="152" y="0" type="line"/>
      <point x="42" y="0" type="line"/>
      <point x="191" y="700" type="line"/>
    </contour>
    <contour>
      <point x="441" y="301" type="line" smooth="yes"/>
      <point x="568" y="301"/>
      <point x="645" y="318"/>
      <point x="673" y="453" type="curve" smooth="yes"/>
      <point x="700" y="579"/>
      <point x="628" y="590"/>
      <point x="502" y="590" type="curve" smooth="yes"/>
      <point x="279" y="590" type="line"/>
      <point x="218" y="301" type="line"/>
    </contour>
  </outline>
</glyph>
<glyph name="S" format="2">
  <advance width="765" height="962"/>
  <unicode hex="0053"/>
  <outline>
    <contour>
      <point x="739" y="581" type="line"/>
      <point x="682" y="599"/>
      <point x="576" y="608"/>
      <point x="509" y="608" type="curve" smooth="yes"/>
      <point x="427" y="608"/>
      <point x="321" y="597"/>
      <point x="309" y="543" type="curve" smooth="yes"/>
      <point x="283" y="421"/>
      <point x="830" y="447"/>
      <point x="777" y="199" type="curve" smooth="yes"/>
      <point x="746" y="50"/>
      <point x="597" y="-12"/>
      <point x="381" y="-12" type="curve" smooth="yes"/>
      <point x="235" y="-12"/>
      <point x="110" y="25"/>
      <point x="41" y="91" type="curve"/>
      <point x="119" y="162" type="line"/>
      <point x="175" y="116"/>
      <point x="295" y="92"/>
      <point x="407" y="92" type="curve" smooth="yes"/>
      <point x="521" y="92"/>
      <point x="635" y="124"/>
      <point x="650" y="192" type="curve" smooth="yes"/>
      <point x="680" y="336"/>
      <point x="136" y="307"/>
      <point x="185" y="535" type="curve" smooth="yes"/>
      <point x="212" y="663"/>
      <point x="376" y="710"/>
      <point x="534" y="710" type="curve" smooth="yes"/>
      <point x="615" y="710"/>
      <point x="718" y="699"/>
      <point x="785" y="673" type="curve"/>
    </contour>
  </outline>
  <guideline angle="90" x="57.5232" y="0"/>
  <guideline angle="0" x="0" y="586"/>
</glyph>
<glyph name="V" format="2">
  <advance width="747" height="962"/>
  <unicode hex="0056"/>
  <outline>
    <contour>
      <point x="162" y="700" type="line"/>
      <point x="292" y="700" type="line"/>
      <point x="403" y="139" type="line"/>
      <point x="751" y="700" type="line"/>
      <point x="882" y="700" type="line"/>
      <point x="441" y="0" type="line"/>
      <point x="305" y="0" type="line"/>
    </contour>
  </outline>
</glyph>
<glyph name="W" format="2">
  <advance width="1084"/>
  <unicode hex="0057"/>
  <outline>
    <contour>
      <point x="736" y="700" type="line"/>
      <point x="797" y="168" type="line"/>
      <point x="1090" y="700" type="line"/>
      <point x="1214" y="700" type="line"/>
      <point x="827" y="0" type="line"/>
      <point x="695" y="0" type="line"/>
      <point x="641" y="464" type="line"/>
      <point x="386" y="0" type="line"/>
      <point x="254" y="0" type="line"/>
      <point x="165" y="700" type="line"/>
      <point x="288" y="700" type="line"/>
      <point x="357" y="168" type="line"/>
      <point x="646" y="700" type="line"/>
    </contour>
  </outline>
  <guideline angle="90" x="130.072" y="0"/>
</glyph>
<glyph name="Z" format="1">
  <advance width="791" height="962"/>
  <unicode hex="005A"/>
  <outline>
    <contour>
      <point x="894" y="700" type="line"/>
      <point x="871" y="590" type="line"/>
      <point x="217" y="106" type="line"/>
      <point x="778" y="106" type="line"/>
      <point x="755" y="0" type="line"/>
      <point x="30" y="0" type="line"/>
      <point x="52" y="102" type="line"/>
      <point x="698" y="590" type="line"/>
      <point x="167" y="590" type="line"/>
      <point x="191" y="700" type="line"/>
    </contour>
  </outline>
</glyph>
<glyph name="a" format="1">
  <advance width="644" height="962"/>
  <unicode hex="0061"/>
  <outline>
    <contour>
      <point x="567" y="345" type="curve"/>
      <point x="583" y="421"/>
      <point x="523" y="434"/>
      <point x="372" y="434" type="curve"/>
      <point x="402" y="510" type="line"/>
      <point x="628" y="510"/>
      <point x="707" y="477"/>
      <point x="675" y="323" type="curve" smooth="yes"/>
      <point x="606" y="0" type="line"/>
      <point x="521" y="-8"/>
      <point x="434" y="-11"/>
      <point x="334" y="-11" type="curve" smooth="yes"/>
      <point x="143" y="-11"/>
      <point x="31" y="19"/>
      <point x="60" y="156" type="curve" smooth="yes"/>
      <point x="81" y="253" type="line" smooth="yes"/>
      <point x="102" y="355"/>
      <point x="186" y="401"/>
      <point x="316" y="401" type="curve" smooth="yes"/>
      <point x="410" y="401"/>
      <point x="502" y="377"/>
    </contour>
    <contour>
      <point x="548" y="253" type="line"/>
      <point x="470" y="276"/>
      <point x="372" y="294"/>
      <point x="290" y="294" type="curve" smooth="yes"/>
      <point x="226" y="294"/>
      <point x="199" y="277"/>
      <point x="189" y="229" type="curve" smooth="yes"/>
      <point x="177" y="174" type="line" smooth="yes"/>
      <point x="166" y="124"/>
      <point x="206" y="91"/>
      <point x="368" y="91" type="curve" smooth="yes"/>
      <point x="405" y="91"/>
      <point x="515" y="95"/>
      <point x="514" y="95" type="curve"/>
    </contour>
  </outline>
</glyph>
<glyph name="b" format="2">
  <advance width="652" height="962"/>
  <unicode hex="0062"/>
  <outline>
    <contour>
      <point x="255" y="484" type="line"/>
      <point x="335" y="501"/>
      <point x="416" y="508"/>
      <point x="500" y="508" type="curve" smooth="yes"/>
      <point x="612" y="508"/>
      <point x="718" y="471"/>
      <point x="694" y="359" type="curve" smooth="yes"/>
      <point x="651" y="156" type="line" smooth="yes"/>
      <point x="623" y="25"/>
      <point x="514" y="-11"/>
      <point x="300" y="-11" type="curve" smooth="yes"/>
      <point x="245" y="-11"/>
      <point x="130" y="-5"/>
      <point x="41" y="0" type="curve"/>
      <point x="190" y="700" type="line"/>
      <point x="301" y="700" type="line"/>
    </contour>
    <contour>
      <point x="172" y="95" type="line"/>
      <point x="172" y="95"/>
      <point x="276" y="92"/>
      <point x="310" y="92" type="curve" smooth="yes"/>
      <point x="510" y="92"/>
      <point x="532" y="124"/>
      <point x="543" y="175" type="curve" smooth="yes"/>
      <point x="575" y="326" type="line" smooth="yes"/>
      <point x="588" y="384"/>
      <point x="537" y="398"/>
      <point x="453" y="398" type="curve" smooth="yes"/>
      <point x="350" y="398"/>
      <point x="254" y="382"/>
      <point x="232" y="375" type="curve"/>
    </contour>
  </outline>
</glyph>
<glyph name="d" format="1">
  <advance width="649" height="962"/>
  <unicode hex="0064"/>
  <outline>
    <contour>
      <point x="606" y="0" type="line"/>
      <point x="524" y="-8"/>
      <point x="393" y="-11"/>
      <point x="320" y="-11" type="curve" smooth="yes"/>
      <point x="126" y="-11"/>
      <point x="33" y="30"/>
      <point x="61" y="159" type="curve" smooth="yes"/>
      <point x="104" y="360" type="line" smooth="yes"/>
      <point x="125" y="463"/>
      <point x="250" y="510"/>
      <point x="360" y="510" type="curve" smooth="yes"/>
      <point x="448" y="510"/>
      <point x="518" y="502"/>
      <point x="597" y="484" type="curve"/>
      <point x="643" y="700" type="line"/>
      <point x="755" y="700" type="line"/>
    </contour>
    <contour>
      <point x="574" y="375" type="line"/>
      <point x="547" y="382"/>
      <point x="463" y="399"/>
      <point x="356" y="399" type="curve" smooth="yes"/>
      <point x="281" y="399"/>
      <point x="220" y="384"/>
      <point x="207" y="326" type="curve" smooth="yes"/>
      <point x="175" y="175" type="line" smooth="yes"/>
      <point x="162" y="114"/>
      <point x="206" y="92"/>
      <point x="372" y="92" type="curve" smooth="yes"/>
      <point x="410" y="92"/>
      <point x="515" y="95"/>
      <point x="514" y="95" type="curve"/>
    </contour>
  </outline>
</glyph>
<glyph name="f" format="2">
  <advance width="380"/>
  <unicode hex="0066"/>
  <outline>
    <contour>
      <point x="457" y="608" type="line"/>
      <point x="443" y="612"/>
      <point x="409" y="613"/>
      <point x="390" y="613" type="curve" smooth="yes"/>
      <point x="313" y="613"/>
      <point x="281" y="593"/>
      <point x="276" y="567" type="curve" smooth="yes"/>
      <point x="261" y="501" type="line"/>
      <point x="448" y="501" type="line"/>
      <point x="399" y="397" type="line"/>
      <point x="239" y="397" type="line"/>
      <point x="155" y="0" type="line"/>
      <point x="39" y="0" type="line"/>
      <point x="158" y="559" type="line" smooth="yes"/>
      <point x="184" y="681"/>
      <point x="284" y="713"/>
      <point x="404" y="713" type="curve" smooth="yes"/>
      <point x="431" y="713"/>
      <point x="479" y="710"/>
      <point x="505" y="706" type="curve"/>
    </contour>
  </outline>
</glyph>
<glyph name="g" format="2">
  <advance width="630" height="962"/>
  <unicode hex="0067"/>
  <outline>
    <contour>
      <point x="570" y="-64" type="line" smooth="yes"/>
      <point x="548" y="-170"/>
      <point x="453" y="-211"/>
      <point x="311" y="-211" type="curve"/>
      <point x="308" y="-125" type="line"/>
      <point x="358" y="-125"/>
      <point x="449" y="-107"/>
      <point x="461" y="-53" type="curve" smooth="yes"/>
      <point x="475" y="12" type="line"/>
      <point x="428" y="-3"/>
      <point x="353" y="-12"/>
      <point x="289" y="-12" type="curve" smooth="yes"/>
      <point x="122" y="-12"/>
      <point x="37" y="34"/>
      <point x="65" y="167" type="curve" smooth="yes"/>
      <point x="106" y="356" type="line" smooth="yes"/>
      <point x="128" y="459"/>
      <point x="225" y="511"/>
      <point x="380" y="511" type="curve" smooth="yes"/>
      <point x="451" y="511"/>
      <point x="519" y="501"/>
      <point x="574" y="479" type="curve"/>
      <point x="578" y="501" type="line"/>
      <point x="690" y="501" type="line"/>
    </contour>
    <contour>
      <point x="554" y="387" type="line"/>
      <point x="555" y="386"/>
      <point x="452" y="411"/>
      <point x="376" y="411" type="curve" smooth="yes"/>
      <point x="297" y="411"/>
      <point x="227" y="405"/>
      <point x="211" y="328" type="curve" smooth="yes"/>
      <point x="177" y="170" type="line" smooth="yes"/>
      <point x="165" y="111"/>
      <point x="210" y="86"/>
      <point x="295" y="88" type="curve" smooth="yes"/>
      <point x="425" y="91"/>
      <point x="497" y="118"/>
      <point x="502" y="140" type="curve" smooth="yes"/>
    </contour>
  </outline>
</glyph>
<glyph name="h" format="2">
  <advance width="632" height="962"/>
  <unicode hex="0068"/>
  <outline>
    <contour>
      <point x="254" y="478" type="line"/>
      <point x="290" y="490"/>
      <point x="369" y="511"/>
      <point x="465" y="511" type="curve" smooth="yes"/>
      <point x="583" y="511"/>
      <point x="701" y="488"/>
      <point x="671" y="349" type="curve" smooth="yes"/>
      <point x="597" y="0" type="line"/>
      <point x="486" y="0" type="line"/>
      <point x="559" y="342" type="line" smooth="yes"/>
      <point x="571" y="400"/>
      <point x="508" y="410"/>
      <point x="432" y="410" type="curve" smooth="yes"/>
      <point x="366" y="410"/>
      <point x="295" y="406"/>
      <point x="234" y="387" type="curve"/>
      <point x="152" y="0" type="line"/>
      <point x="41" y="0" type="line"/>
      <point x="190" y="700" type="line"/>
      <point x="301" y="700" type="line"/>
    </contour>
  </outline>
</glyph>
<glyph name="i" format="1">
  <advance width="200" height="962"/>
  <unicode hex="0069"/>
  <outline>
    <contour>
      <point x="46" y="0" type="line"/>
      <point x="152" y="501" type="line"/>
      <point x="258" y="501" type="line"/>
      <point x="152" y="0" type="line"/>
    </contour>
    <contour>
      <point x="251" y="710" type="curve" smooth="yes"/>
      <point x="285" y="710"/>
      <point x="306" y="686"/>
      <point x="299" y="652" type="curve" smooth="yes"/>
      <point x="291" y="618"/>
      <point x="260" y="592"/>
      <point x="226" y="592" type="curve" smooth="yes"/>
      <point x="192" y="592"/>
      <point x="171" y="618"/>
      <point x="179" y="652" type="curve" smooth="yes"/>
      <point x="186" y="686"/>
      <point x="217" y="710"/>
    </contour>
  </outline>
</glyph>
<glyph name="q" format="2">
  <advance width="622" height="962"/>
  <unicode hex="0071"/>
  <outline>
    <contour>
      <point x="474" y="15" type="line"/>
      <point x="421" y="-4"/>
      <point x="353" y="-11"/>
      <point x="290" y="-11" type="curve" smooth="yes"/>
      <point x="123" y="-11"/>
      <point x="37" y="37"/>
      <point x="64" y="167" type="curve" smooth="yes"/>
      <point x="105" y="356" type="line" smooth="yes"/>
      <point x="129" y="469"/>
      <point x="223" y="512"/>
      <point x="381" y="512" type="curve" smooth="yes"/>
      <point x="452" y="512"/>
      <point x="516" y="500"/>
      <point x="573" y="479" type="curve"/>
      <point x="577" y="501" type="line"/>
      <point x="688" y="501" type="line"/>
      <point x="537" y="-213" type="line"/>
      <point x="430" y="-192" type="line"/>
    </contour>
    <contour>
      <point x="553" y="388" type="line"/>
      <point x="549" y="389"/>
      <point x="455" y="412"/>
      <point x="368" y="412" type="curve" smooth="yes"/>
      <point x="302" y="412"/>
      <point x="226" y="406"/>
      <point x="214" y="349" type="curve" smooth="yes"/>
      <point x="174" y="162" type="line" smooth="yes"/>
      <point x="166" y="123"/>
      <point x="194" y="88"/>
      <point x="288" y="89" type="curve" smooth="yes"/>
      <point x="430" y="91"/>
      <point x="496" y="118"/>
      <point x="501" y="141" type="curve" smooth="yes"/>
    </contour>
  </outline>
</glyph>
<glyph name="r" format="1">
  <advance width="471" height="962"/>
  <unicode hex="0072"/>
  <outline>
    <contour>
      <point x="524" y="410" type="line"/>
      <point x="524" y="410"/>
      <point x="484" y="418"/>
      <point x="437" y="418" type="curve" smooth="yes"/>
      <point x="355" y="418"/>
      <point x="290" y="411"/>
      <point x="220" y="389" type="curve"/>
      <point x="137" y="0" type="line"/>
      <point x="39" y="0" type="line"/>
      <point x="145" y="501" type="line"/>
      <point x="243" y="501" type="line"/>
      <point x="239" y="481" type="line"/>
      <point x="298" y="503"/>
      <point x="370" y="516"/>
      <point x="440" y="516" type="curve" smooth="yes"/>
      <point x="480" y="516"/>
      <point x="527" y="509"/>
      <point x="552" y="501" type="curve"/>
    </contour>
  </outline>
</glyph>
<glyph name="s" format="2">
  <advance width="610" height="962"/>
  <unicode hex="0073"/>
  <anchor x="327" y="589" name="top"/>
  <outline>
    <contour>
      <point x="549" y="386" type="line"/>
      <point x="511" y="399"/>
      <point x="450" y="408"/>
      <point x="387" y="408" type="curve" smooth="yes"/>
      <point x="344" y="408"/>
      <point x="270" y="405"/>
      <point x="264" y="376" type="curve" smooth="yes"/>
      <point x="250" y="309"/>
      <point x="649" y="320"/>
      <point x="612" y="147" type="curve" smooth="yes"/>
      <point x="589" y="37"/>
      <point x="457" y="-17"/>
      <point x="306" y="-17" type="curve" smooth="yes"/>
      <point x="196" y="-17"/>
      <point x="99" y="18"/>
      <point x="40" y="70" type="curve"/>
      <point x="116" y="141" type="line"/>
      <point x="166" y="110"/>
      <point x="269" y="86"/>
      <point x="341" y="86" type="curve" smooth="yes"/>
      <point x="404" y="86"/>
      <point x="481" y="101"/>
      <point x="490" y="139" type="curve" smooth="yes"/>
      <point x="506" y="218"/>
      <point x="105" y="207"/>
      <point x="141" y="377" type="curve" smooth="yes"/>
      <point x="162" y="475"/>
      <point x="286" y="514"/>
      <point x="422" y="514" type="curve" smooth="yes"/>
      <point x="486" y="514"/>
      <point x="564" y="502"/>
      <point x="610" y="478" type="curve"/>
    </contour>
  </outline>
  <guideline angle="90" x="-349.807" y="0"/>
  <guideline angle="0" x="0" y="345"/>
</glyph>
<glyph name="u" format="2">
  <advance width="631" height="962"/>
  <unicode hex="0075"/>
  <outline>
    <contour>
      <point x="486" y="32" type="line"/>
      <point x="440" y="8"/>
      <point x="381" y="-9"/>
      <point x="267" y="-9" type="curve" smooth="yes"/>
      <point x="152" y="-9"/>
      <point x="40" y="29"/>
      <point x="68" y="158" type="curve" smooth="yes"/>
      <point x="140" y="501" type="line"/>
      <point x="251" y="501" type="line"/>
      <point x="179" y="160" type="line" smooth="yes"/>
      <point x="169" y="113"/>
      <point x="211" y="95"/>
      <point x="301" y="95" type="curve" smooth="yes"/>
      <point x="404" y="95"/>
      <point x="506" y="129"/>
      <point x="516" y="176" type="curve" smooth="yes"/>
      <point x="585" y="501" type="line"/>
      <point x="697" y="501" type="line"/>
      <point x="591" y="0" type="line"/>
      <point x="479" y="0" type="line"/>
    </contour>
  </outline>
</glyph>
<glyph name="x" format="1">
  <advance width="746" height="962"/>
  <unicode hex="0078"/>
  <outline>
    <contour>
      <point x="443" y="328" type="line"/>
      <point x="659" y="501" type="line"/>
      <point x="821" y="501" type="line"/>
      <point x="508" y="251" type="line"/>
      <point x="714" y="0" type="line"/>
      <point x="555" y="0" type="line"/>
      <point x="411" y="172" type="line"/>
      <point x="196" y="0" type="line"/>
      <point x="34" y="0" type="line"/>
      <point x="347" y="250" type="line"/>
      <point x="140" y="501" type="line"/>
      <point x="301" y="501" type="line"/>
    </contour>
  </outline>
</glyph>
<glyph name="y" format="2">
  <advance width="668" height="962"/>
  <unicode hex="0079"/>
  <outline>
    <contour>
      <point x="735" y="434" type="line"/>
      <point x="685" y="426"/>
      <point x="675" y="397"/>
      <point x="668" y="363" type="curve" smooth="yes"/>
      <point x="578" y="-59" type="line" smooth="yes"/>
      <point x="556" y="-165"/>
      <point x="463" y="-214"/>
      <point x="319" y="-214" type="curve"/>
      <point x="294" y="-125" type="line"/>
      <point x="382" y="-120"/>
      <point x="456" y="-103"/>
      <point x="468" y="-48" type="curve" smooth="yes"/>
      <point x="488" y="48" type="line"/>
      <point x="444" y="18"/>
      <point x="358" y="-6"/>
      <point x="275" y="-6" type="curve" smooth="yes"/>
      <point x="155" y="-6"/>
      <point x="39" y="15"/>
      <point x="67" y="144" type="curve" smooth="yes"/>
      <point x="143" y="503" type="line"/>
      <point x="255" y="503" type="line"/>
      <point x="182" y="162" type="line" smooth="yes"/>
      <point x="170" y="105"/>
      <point x="217" y="95"/>
      <point x="295" y="95" type="curve" smooth="yes"/>
      <point x="379" y="95"/>
      <point x="506" y="131"/>
      <point x="516" y="177" type="curve" smooth="yes"/>
      <point x="559" y="383" type="line" smooth="yes"/>
      <point x="573" y="449"/>
      <point x="624" y="512"/>
      <point x="719" y="512" type="curve"/>
    </contour>
  </outline>
</glyph>
<glyph name="z" format="1">
  <advance width="617" height="962"/>
  <unicode hex="007A"/>
  <outline>
    <contour>
      <point x="677" y="501" type="line"/>
      <point x="656" y="401" type="line"/>
      <point x="234" y="106" type="line"/>
      <point x="609" y="106" type="line"/>
      <point x="586" y="0" type="line"/>
      <point x="33" y="0" type="line"/>
      <point x="56" y="106" type="line"/>
      <point x="478" y="398" type="line"/>
      <point x="131" y="398" type="line"/>
      <point x="152" y="501" type="line"/>
    </contour>
  </outline>
</glyph>
<glyph name="bar" format="2">
  <advance width="294" height="962"/>
  <unicode hex="007C"/>
  <outline>
    <contour>
      <point x="39" y="-115" type="line"/>
      <point x="237" y="819" type="line"/>
      <point x="404" y="819" type="line"/>
      <point x="206" y="-115" type="line"/>
    </contour>
  </outline>
</glyph>
<glyph name="asciitilde" format="2">
  <advance width="267"/>
  <unicode hex="007E"/>
  <outline>
    <contour>
      <point x="356" y="300" type="line"/>
      <point x="325" y="278"/>
      <point x="290" y="257"/>
      <point x="250" y="257" type="curve" smooth="yes"/>
      <point x="207" y="257"/>
      <point x="177" y="287"/>
      <point x="135" y="287" type="curve" smooth="yes"/>
      <point x="115" y="287"/>
      <point x="92" y="280"/>
      <point x="64" y="264" type="curve"/>
      <point x="43" y="320" type="line"/>
      <point x="75" y="343"/>
      <point x="110" y="361"/>
      <point x="147" y="361" type="curve" smooth="yes"/>
      <point x="194" y="361"/>
      <point x="224" y="332"/>
      <point x="267" y="332" type="curve" smooth="yes"/>
      <point x="285" y="332"/>
      <point x="307" y="339"/>
      <point x="335" y="356" type="curve"/>
    </contour>
  </outline>
</glyph>
<glyph name="exclamdown" format="1">
  <advance width="195" height="962"/>
  <unicode hex="00A1"/>
  <outline>
    <contour>
      <point x="170" y="68" type="line"/>
      <point x="161" y="23"/>
      <point x="136" y="0"/>
      <point x="96" y="0" type="curve" smooth="yes"/>
      <point x="58" y="0"/>
      <point x="44" y="24"/>
      <point x="54" y="69" type="curve"/>
      <point x="182" y="590" type="line"/>
      <point x="259" y="590" type="line"/>
    </contour>
    <contour>
      <point x="299" y="666" type="curve" smooth="yes"/>
      <point x="292" y="633"/>
      <point x="260" y="607"/>
      <point x="227" y="607" type="curve" smooth="yes"/>
      <point x="194" y="607"/>
      <point x="173" y="633"/>
      <point x="180" y="666" type="curve" smooth="yes"/>
      <point x="187" y="700"/>
      <point x="219" y="726"/>
      <point x="252" y="726" type="curve" smooth="yes"/>
      <point x="285" y="726"/>
      <point x="306" y="700"/>
    </contour>
  </outline>
</glyph>
<glyph name="cent" format="1">
  <advance width="539" height="962"/>
  <unicode hex="00A2"/>
  <outline>
    <component base="c"/>
    <contour>
      <point x="210" y="-114" type="line"/>
      <point x="367" y="625" type="line"/>
      <point x="478" y="625" type="line"/>
      <point x="321" y="-114" type="line"/>
    </contour>
  </outline>
</glyph>
<glyph name="sterling" format="2">
  <advance width="611"/>
  <unicode hex="00A3"/>
  <outline>
    <contour>
      <point x="256" y="101" type="line" smooth="yes"/>
      <point x="346" y="101"/>
      <point x="407" y="154"/>
      <point x="417" y="206" type="curve" smooth="yes"/>
      <point x="426" y="254"/>
      <point x="376" y="296"/>
      <point x="345" y="324" type="curve" smooth="yes"/>
      <point x="326" y="341" type="line"/>
      <point x="107" y="341" type="line"/>
      <point x="129" y="444" type="line"/>
      <point x="240" y="444" type="line"/>
      <point x="224" y="465" type="line" smooth="yes"/>
      <point x="199" y="497"/>
      <point x="188" y="534"/>
      <point x="198" y="571" type="curve" smooth="yes"/>
      <point x="224" y="663"/>
      <point x="356" y="710"/>
      <point x="491" y="710" type="curve" smooth="yes"/>
      <point x="543" y="710"/>
      <point x="624" y="697"/>
      <point x="669" y="674" type="curve"/>
      <point x="609" y="584" type="line"/>
      <point x="576" y="598"/>
      <point x="540" y="611"/>
      <point x="461" y="611" type="curve" smooth="yes"/>
      <point x="375" y="611"/>
      <point x="323" y="592"/>
      <point x="315" y="564" type="curve" smooth="yes"/>
      <point x="308" y="540"/>
      <point x="329" y="512"/>
      <point x="366" y="478" type="curve" smooth="yes"/>
      <point x="401" y="444" type="line"/>
      <point x="671" y="444" type="line"/>
      <point x="649" y="341" type="line"/>
      <point x="492" y="341" type="line"/>
      <point x="518" y="312" type="line" smooth="yes"/>
      <point x="539" y="288"/>
      <point x="549" y="249"/>
      <point x="542" y="216" type="curve" smooth="yes"/>
      <point x="534" y="177"/>
      <point x="496" y="127"/>
      <point x="442" y="101" type="curve"/>
      <point x="598" y="101" type="line"/>
      <point x="577" y="0" type="line"/>
      <point x="35" y="0" type="line"/>
      <point x="56" y="101" type="line"/>
    </contour>
  </outline>
</glyph>
<glyph name="copyright" format="1">
  <advance width="1013" height="962"/>
  <unicode hex="00A9"/>
  <outline>
    <contour>
      <point x="1021" y="186" type="line" smooth="yes"/>
      <point x="981" y="1"/>
      <point x="764" y="-95"/>
      <point x="486" y="-95" type="curve" smooth="yes"/>
      <point x="208" y="-95"/>
      <point x="30" y="1"/>
      <point x="70" y="186" type="curve" smooth="yes"/>
      <point x="100" y="327" type="line" smooth="yes"/>
      <point x="139" y="512"/>
      <point x="357" y="605"/>
      <point x="635" y="605" type="curve" smooth="yes"/>
      <point x="913" y="605"/>
      <point x="1090" y="512"/>
      <point x="1051" y="327" type="curve" smooth="yes"/>
    </contour>
    <contour>
      <point x="937" y="310" type="line" smooth="yes"/>
      <point x="963" y="431"/>
      <point x="877" y="505"/>
      <point x="613" y="505" type="curve" smooth="yes"/>
      <point x="352" y="505"/>
      <point x="232" y="429"/>
      <point x="207" y="310" type="curve" smooth="yes"/>
      <point x="184" y="203" type="line" smooth="yes"/>
      <point x="160" y="89"/>
      <point x="246" y="7"/>
      <point x="507" y="7" type="curve" smooth="yes"/>
      <point x="771" y="7"/>
      <point x="890" y="91"/>
      <point x="914" y="203" type="curve" smooth="yes"/>
    </contour>
    <contour>
      <point x="775" y="332" type="line"/>
      <point x="777" y="332"/>
      <point x="659" y="351"/>
      <point x="587" y="351" type="curve" smooth="yes"/>
      <point x="454" y="351"/>
      <point x="414" y="324"/>
      <point x="399" y="256" type="curve" smooth="yes"/>
      <point x="385" y="190"/>
      <point x="432" y="163"/>
      <point x="558" y="163" type="curve" smooth="yes"/>
      <point x="653" y="163"/>
      <point x="793" y="187"/>
      <point x="792" y="187" type="curve"/>
      <point x="797" y="92" type="line"/>
      <point x="708" y="70"/>
      <point x="621" y="56"/>
      <point x="541" y="56" type="curve" smooth="yes"/>
      <point x="359" y="56"/>
      <point x="257" y="106"/>
      <point x="287" y="250" type="curve" smooth="yes"/>
      <point x="318" y="397"/>
      <point x="435" y="457"/>
      <point x="626" y="457" type="curve" smooth="yes"/>
      <point x="701" y="457"/>
      <point x="772" y="442"/>
      <point x="828" y="422" type="curve"/>
    </contour>
  </outline>
</glyph>
<glyph name="plusminus" format="2">
  <advance width="587" height="962"/>
  <unicode hex="00B1"/>
  <outline>
    <component base="plus" xOffset="7" yOffset="30"/>
    <contour>
      <point x="538" y="247" type="line"/>
      <point x="516" y="147" type="line"/>
      <point x="115" y="147" type="line"/>
      <point x="137" y="247" type="line"/>
    </contour>
  </outline>
</glyph>
<glyph name="mu" format="1">
  <advance width="643" height="962"/>
  <unicode hex="00B5"/>
  <outline>
    <contour>
      <point x="611" y="113" type="line" smooth="yes"/>
      <point x="597" y="48"/>
      <point x="628" y="29"/>
      <point x="631" y="26" type="curve"/>
      <point x="527" y="-12" type="line"/>
      <point x="510" y="-2"/>
      <point x="497" y="15"/>
      <point x="493" y="25" type="curve"/>
      <point x="471" y="8"/>
      <point x="397" y="-12"/>
      <point x="326" y="-12" type="curve" smooth="yes"/>
      <point x="275" y="-12"/>
      <point x="178" y="5"/>
      <point x="156" y="29" type="curve"/>
      <point x="104" y="-216" type="line"/>
      <point x="-1" y="-192" type="line"/>
      <point x="146" y="501" type="line"/>
      <point x="256" y="501" type="line"/>
      <point x="183" y="153" type="line" smooth="yes"/>
      <point x="174" y="112"/>
      <point x="258" y="90"/>
      <point x="332" y="92" type="curve" smooth="yes"/>
      <point x="441" y="95"/>
      <point x="501" y="121"/>
      <point x="509" y="159" type="curve" smooth="yes"/>
      <point x="581" y="498" type="line"/>
      <point x="696" y="511" type="line"/>
    </contour>
  </outline>
</glyph>
<glyph name="paragraph" format="2">
  <advance width="927" height="962"/>
  <unicode hex="00B6"/>
  <outline>
    <contour>
      <point x="389" y="196" type="line" smooth="yes"/>
      <point x="219" y="196"/>
      <point x="82" y="237"/>
      <point x="129" y="454" type="curve" smooth="yes"/>
      <point x="170" y="651"/>
      <point x="330" y="702"/>
      <point x="496" y="702" type="curve" smooth="yes"/>
      <point x="1032" y="702" type="line"/>
      <point x="883" y="1" type="line"/>
      <point x="773" y="1" type="line"/>
      <point x="899" y="592" type="line"/>
      <point x="757" y="592" type="line"/>
      <point x="631" y="1" type="line"/>
      <point x="518" y="1" type="line"/>
      <point x="560" y="196" type="line"/>
    </contour>
    <contour>
      <point x="499" y="592" type="line" smooth="yes"/>
      <point x="347" y="592"/>
      <point x="275" y="580"/>
      <point x="249" y="454" type="curve" smooth="yes"/>
      <point x="220" y="319"/>
      <point x="284" y="301"/>
      <point x="437" y="301" type="curve" smooth="yes"/>
      <point x="582" y="301" type="line"/>
      <point x="645" y="592" type="line"/>
    </contour>
  </outline>
</glyph>
<glyph name="ordmasculine" format="2">
	<advance width="515"/>
	<unicode hex="00BA"/>
	<outline>
		<contour>
			<point x="565" y="497" type="line" smooth="yes"/>
			<point x="547" y="415"/>
			<point x="473" y="379"/>
			<point x="336" y="379" type="curve" smooth="yes"/>
			<point x="189" y="379"/>
			<point x="135" y="425"/>
			<point x="151" y="497" type="curve" smooth="yes"/>
			<point x="171" y="593" type="line" smooth="yes"/>
			<point x="189" y="679"/>
			<point x="270" y="711"/>
			<point x="406" y="711" type="curve" smooth="yes"/>
			<point x="536" y="711"/>
			<point x="603" y="677"/>
			<point x="585" y="593" type="curve" smooth="yes"/>
		</contour>
		<contour>
			<point x="487" y="583" type="line" smooth="yes"/>
			<point x="492" y="608"/>
			<point x="469" y="625"/>
			<point x="388" y="625" type="curve" smooth="yes"/>
			<point x="307" y="625"/>
			<point x="271" y="610"/>
			<point x="265" y="583" type="curve" smooth="yes"/>
			<point x="249" y="506" type="line" smooth="yes"/>
			<point x="244" y="485"/>
			<point x="263" y="465"/>
			<point x="354" y="465" type="curve" smooth="yes"/>
			<point x="443" y="465"/>
			<point x="466" y="483"/>
			<point x="471" y="506" type="curve" smooth="yes"/>
		</contour>
	</outline>
</glyph>
<glyph name="Eth" format="2">
  <advance width="708"/>
  <unicode hex="00D0"/>
  <outline>
    <component base="D"/>
    <contour>
      <point x="189" y="309" type="line"/>
      <point x="211" y="414" type="line"/>
      <point x="502" y="414" type="line"/>
      <point x="443" y="309" type="line"/>
    </contour>
  </outline>
</glyph>
<glyph name="germandbls" format="2">
  <advance width="744" height="962"/>
  <unicode hex="00DF"/>
  <outline>
    <contour>
      <point x="151" y="0" type="line"/>
      <point x="40" y="0" type="line"/>
      <point x="152" y="528" type="line" smooth="yes"/>
      <point x="179" y="654"/>
      <point x="302" y="702"/>
      <point x="432" y="702" type="curve" smooth="yes"/>
      <point x="533" y="702"/>
      <point x="621" y="669"/>
      <point x="638" y="612" type="curve" smooth="yes"/>
      <point x="650" y="570"/>
      <point x="636" y="516"/>
      <point x="571" y="478" type="curve"/>
      <point x="571" y="478"/>
      <point x="493" y="478"/>
      <point x="491" y="478" type="curve"/>
      <point x="480" y="467"/>
      <point x="474" y="456"/>
      <point x="472" y="445" type="curve" smooth="yes"/>
      <point x="455" y="367"/>
      <point x="756" y="337"/>
      <point x="716" y="150" type="curve" smooth="yes"/>
      <point x="696" y="55"/>
      <point x="584" y="-12"/>
      <point x="428" y="-12" type="curve" smooth="yes"/>
      <point x="336" y="-12"/>
      <point x="266" y="7"/>
      <point x="216" y="37" type="curve"/>
      <point x="277" y="124" type="line"/>
      <point x="328" y="97"/>
      <point x="396" y="93"/>
      <point x="447" y="93" type="curve" smooth="yes"/>
      <point x="505" y="93"/>
      <point x="589" y="106"/>
      <point x="598" y="152" type="curve" smooth="yes"/>
      <point x="619" y="251"/>
      <point x="318" y="293"/>
      <point x="348" y="433" type="curve" smooth="yes"/>
      <point x="353" y="455"/>
      <point x="365" y="484"/>
      <point x="392" y="508" type="curve"/>
      <point x="452" y="508"/>
      <point x="513" y="519"/>
      <point x="520" y="552" type="curve" smooth="yes"/>
      <point x="527" y="583"/>
      <point x="494" y="604"/>
      <point x="421" y="604" type="curve" smooth="yes"/>
      <point x="324" y="604"/>
      <point x="273" y="576"/>
      <point x="260" y="512" type="curve" smooth="yes"/>
    </contour>
  </outline>
</glyph>
<glyph name="oslash" format="2">
  <advance width="615" height="962"/>
  <unicode hex="00F8"/>
  <outline>
    <component base="o"/>
    <contour>
      <point x="678" y="514" type="line"/>
      <point x="437.283" y="254.841" type="line"/>
      <point x="182" y="-20" type="line"/>
      <point x="83" y="-20" type="line"/>
      <point x="362.162" y="282.378" type="line"/>
      <point x="576" y="514" type="line"/>
    </contour>
  </outline>
</glyph>
<glyph name="hbar" format="2">
  <advance width="658"/>
  <unicode hex="0127"/>
  <outline>
    <component base="h" xOffset="26"/>
    <contour>
      <point x="519" y="550" type="line"/>
      <point x="119" y="550" type="line"/>
      <point x="138" y="641" type="line"/>
      <point x="538" y="641" type="line"/>
    </contour>
  </outline>
</glyph>
<glyph name="IJ" format="1">
  <advance width="815" height="962"/>
  <unicode hex="0132"/>
  <outline>
    <contour>
      <point x="923" y="700" type="line"/>
      <point x="812" y="181" type="line" smooth="yes"/>
      <point x="783" y="42"/>
      <point x="640" y="-11"/>
      <point x="449" y="-11" type="curve" smooth="yes"/>
      <point x="259" y="-11"/>
      <point x="136" y="52"/>
      <point x="165" y="186" type="curve" smooth="yes"/>
      <point x="173" y="224" type="line"/>
      <point x="284" y="224" type="line"/>
      <point x="277" y="191" type="line" smooth="yes"/>
      <point x="260" y="115"/>
      <point x="370" y="98"/>
      <point x="470" y="98" type="curve" smooth="yes"/>
      <point x="567" y="98"/>
      <point x="690" y="121"/>
      <point x="705" y="193" type="curve" smooth="yes"/>
      <point x="790" y="594" type="line"/>
      <point x="690" y="595" type="line"/>
      <point x="713" y="700" type="line"/>
    </contour>
    <contour>
      <point x="385" y="700" type="line"/>
      <point x="304" y="321" type="line"/>
      <point x="193" y="321" type="line"/>
      <point x="251" y="593" type="line"/>
      <point x="141" y="595" type="line"/>
      <point x="164" y="700" type="line"/>
    </contour>
  </outline>
</glyph>
<glyph name="ij" format="2">
  <advance width="644"/>
  <unicode hex="0133"/>
  <outline>
    <contour>
      <point x="250" y="710" type="curve" smooth="yes"/>
      <point x="283" y="710"/>
      <point x="305" y="686"/>
      <point x="298" y="652" type="curve" smooth="yes"/>
      <point x="290" y="618"/>
      <point x="258" y="592"/>
      <point x="225" y="592" type="curve" smooth="yes"/>
      <point x="192" y="592"/>
      <point x="171" y="618"/>
      <point x="179" y="652" type="curve" smooth="yes"/>
      <point x="186" y="686"/>
      <point x="217" y="710"/>
    </contour>
    <contour>
      <point x="743" y="651" type="curve" smooth="yes"/>
      <point x="737" y="619"/>
      <point x="704" y="592"/>
      <point x="670" y="592" type="curve" smooth="yes"/>
      <point x="637" y="592"/>
      <point x="617" y="619"/>
      <point x="623" y="651" type="curve" smooth="yes"/>
      <point x="631" y="685"/>
      <point x="662" y="710"/>
      <point x="695" y="710" type="curve" smooth="yes"/>
      <point x="729" y="710"/>
      <point x="751" y="685"/>
    </contour>
    <contour>
      <point x="594" y="501" type="line"/>
      <point x="706" y="501" type="line"/>
      <point x="585" y="-69" type="line" smooth="yes"/>
      <point x="565" y="-165"/>
      <point x="465" y="-214"/>
      <point x="329" y="-214" type="curve"/>
      <point x="303" y="-125" type="line"/>
      <point x="365" y="-125"/>
      <point x="466" y="-103"/>
      <point x="477" y="-54" type="curve" smooth="yes"/>
      <point x="494" y="28" type="line"/>
      <point x="417" y="4"/>
      <point x="347" y="-6"/>
      <point x="284" y="-6" type="curve" smooth="yes"/>
      <point x="164" y="-6"/>
      <point x="49" y="25"/>
      <point x="77" y="154" type="curve" smooth="yes"/>
      <point x="150" y="501" type="line"/>
      <point x="261" y="501" type="line"/>
      <point x="190" y="165" type="line" smooth="yes"/>
      <point x="175" y="93"/>
      <point x="264" y="95"/>
      <point x="329" y="95" type="curve" smooth="yes"/>
      <point x="414" y="95"/>
      <point x="514" y="124"/>
      <point x="522" y="161" type="curve" smooth="yes"/>
    </contour>
  </outline>
</glyph>
<glyph name="Lslash" format="1">
  <advance width="696" height="962"/>
  <unicode hex="0141"/>
  <outline>
    <component base="L" xOffset="85.75"/>
    <contour>
      <point x="106" y="276" type="line"/>
      <point x="96" y="360" type="line"/>
      <point x="559" y="490" type="line"/>
      <point x="572" y="408" type="line"/>
    </contour>
  </outline>
</glyph>
<glyph name="tbar" format="2">
  <advance width="417"/>
  <unicode hex="0167"/>
  <outline>
    <component base="t" xOffset="36.5"/>
    <contour>
      <point x="414" y="236" type="line"/>
      <point x="50" y="236" type="line"/>
      <point x="70" y="327" type="line"/>
      <point x="434" y="327" type="line"/>
    </contour>
  </outline>
</glyph>
<glyph name="circumflex" format="2">
  <advance width="267"/>
  <unicode hex="02C6"/>
  <outline>
    <contour>
      <point x="401" y="645" type="line"/>
      <point x="337" y="594" type="line"/>
      <point x="279" y="675" type="line"/>
      <point x="181" y="593" type="line"/>
      <point x="140" y="644" type="line"/>
      <point x="300" y="772" type="line"/>
    </contour>
  </outline>
</glyph>
<glyph name="dotaccent" format="2">
  <advance width="267"/>
  <unicode hex="02D9"/>
  <outline>
    <contour>
      <point x="299" y="776" type="curve" smooth="yes"/>
      <point x="332" y="776"/>
      <point x="353" y="752"/>
      <point x="346" y="718" type="curve" smooth="yes"/>
      <point x="339" y="685"/>
      <point x="307" y="658"/>
      <point x="274" y="658" type="curve" smooth="yes"/>
      <point x="240" y="658"/>
      <point x="219" y="685"/>
      <point x="226" y="718" type="curve" smooth="yes"/>
      <point x="233" y="752"/>
      <point x="265" y="776"/>
    </contour>
  </outline>
</glyph>
<glyph name="brevecomb" format="2">
  <advance width="267"/>
  <unicode hex="0306"/>
  <outline>
    <contour>
      <point x="397" y="707" type="line"/>
      <point x="396" y="700" type="line" smooth="yes"/>
      <point x="383" y="639"/>
      <point x="320" y="587"/>
      <point x="259" y="587" type="curve" smooth="yes"/>
      <point x="196" y="587"/>
      <point x="155" y="639"/>
      <point x="168" y="700" type="curve" smooth="yes"/>
      <point x="169" y="707" type="line"/>
      <point x="250" y="707" type="line"/>
      <point x="249" y="700" type="line" smooth="yes"/>
      <point x="245" y="683"/>
      <point x="257" y="666"/>
      <point x="276" y="666" type="curve" smooth="yes"/>
      <point x="294" y="666"/>
      <point x="313" y="683"/>
      <point x="317" y="700" type="curve" smooth="yes"/>
      <point x="318" y="707" type="line"/>
    </contour>
  </outline>
</glyph>
<glyph name="dieresiscomb" format="1">
  <advance width="267" height="962"/>
  <unicode hex="0308"/>
  <outline>
    <contour>
      <point x="217" y="769" type="curve" smooth="yes"/>
      <point x="251" y="769"/>
      <point x="272" y="742"/>
      <point x="265" y="710" type="curve" smooth="yes"/>
      <point x="258" y="677"/>
      <point x="226" y="650"/>
      <point x="192" y="650" type="curve" smooth="yes"/>
      <point x="159" y="650"/>
      <point x="138" y="677"/>
      <point x="145" y="710" type="curve" smooth="yes"/>
      <point x="152" y="742"/>
      <point x="184" y="769"/>
    </contour>
    <contour>
      <point x="376" y="769" type="curve" smooth="yes"/>
      <point x="409" y="769"/>
      <point x="431" y="742"/>
      <point x="424" y="710" type="curve" smooth="yes"/>
      <point x="417" y="677"/>
      <point x="384" y="650"/>
      <point x="351" y="650" type="curve" smooth="yes"/>
      <point x="317" y="650"/>
      <point x="297" y="677"/>
      <point x="304" y="710" type="curve" smooth="yes"/>
      <point x="311" y="742"/>
      <point x="342" y="769"/>
    </contour>
  </outline>
</glyph>
<glyph name="ringcomb" format="2">
  <advance width="267"/>
  <unicode hex="030A"/>
  <outline>
    <contour>
      <point x="299" y="776" type="curve" smooth="yes"/>
      <point x="362" y="776"/>
      <point x="403" y="727"/>
      <point x="389" y="663" type="curve" smooth="yes"/>
      <point x="376" y="601"/>
      <point x="314" y="549"/>
      <point x="251" y="549" type="curve" smooth="yes"/>
      <point x="188" y="549"/>
      <point x="147" y="601"/>
      <point x="160" y="663" type="curve" smooth="yes"/>
      <point x="174" y="727"/>
      <point x="236" y="776"/>
    </contour>
    <contour>
      <point x="282" y="694" type="curve" smooth="yes"/>
      <point x="274" y="694"/>
      <point x="266" y="691"/>
      <point x="259" y="686" type="curve" smooth="yes"/>
      <point x="252" y="680"/>
      <point x="246" y="672"/>
      <point x="244" y="663" type="curve" smooth="yes"/>
      <point x="242" y="654"/>
      <point x="244" y="646"/>
      <point x="248" y="640" type="curve" smooth="yes"/>
      <point x="253" y="634"/>
      <point x="260" y="631"/>
      <point x="268" y="631" type="curve" smooth="yes"/>
      <point x="276" y="631"/>
      <point x="284" y="634"/>
      <point x="290" y="639" type="curve" smooth="yes"/>
      <point x="298" y="644"/>
      <point x="304" y="653"/>
      <point x="306" y="663" type="curve" smooth="yes"/>
      <point x="308" y="671"/>
      <point x="306" y="679"/>
      <point x="302" y="684" type="curve" smooth="yes"/>
      <point x="298" y="690"/>
      <point x="291" y="694"/>
    </contour>
  </outline>
</glyph>
<glyph name="commaaccent" format="2">
  <advance width="267"/>
  <unicode hex="0326"/>
  <outline>
    <contour>
      <point x="61" y="-195" type="line"/>
      <point x="75" y="-176"/>
      <point x="83" y="-157"/>
      <point x="91" y="-137" type="curve"/>
      <point x="65" y="-130"/>
      <point x="51" y="-107"/>
      <point x="57" y="-79" type="curve" smooth="yes"/>
      <point x="64" y="-46"/>
      <point x="97" y="-19"/>
      <point x="131" y="-19" type="curve" smooth="yes"/>
      <point x="163" y="-19"/>
      <point x="183" y="-46"/>
      <point x="176" y="-79" type="curve" smooth="yes"/>
      <point x="157" y="-169"/>
      <point x="79" y="-212"/>
      <point x="81" y="-212" type="curve"/>
    </contour>
  </outline>
</glyph>
<glyph name="tonos" format="2">
  <advance width="267" height="962"/>
  <unicode hex="0384"/>
  <outline>
    <contour>
      <point x="321" y="673" type="curve" smooth="yes"/>
      <point x="247" y="598" type="line"/>
      <point x="202" y="598" type="line"/>
      <point x="258" y="714" type="line"/>
      <point x="270" y="741"/>
      <point x="305" y="758"/>
      <point x="329" y="743" type="curve" smooth="yes"/>
      <point x="350" y="729"/>
      <point x="344" y="696"/>
    </contour>
  </outline>
</glyph>
<glyph name="Eta" format="1">
  <advance width="722" height="962"/>
  <unicode hex="0397"/>
  <outline>
    <contour>
      <point x="655" y="414" type="line"/>
      <point x="716" y="700" type="line"/>
      <point x="827" y="700" type="line"/>
      <point x="678" y="0" type="line"/>
      <point x="567" y="0" type="line"/>
      <point x="633" y="309" type="line"/>
      <point x="218" y="309" type="line"/>
      <point x="152" y="0" type="line"/>
      <point x="41" y="0" type="line"/>
      <point x="190" y="700" type="line"/>
      <point x="301" y="700" type="line"/>
      <point x="240" y="414" type="line"/>
    </contour>
  </outline>
</glyph>
<glyph name="Theta" format="2">
  <advance width="700"/>
  <unicode hex="0398"/>
  <outline>
    <component base="O"/>
    <contour>
      <point x="224" y="401" type="line"/>
      <point x="643" y="401" type="line"/>
      <point x="622" y="303" type="line"/>
      <point x="203" y="303" type="line"/>
    </contour>
  </outline>
  <guideline angle="0" x="0" y="340"/>
</glyph>
<glyph name="Xi" format="2">
  <advance width="822"/>
  <unicode hex="039E"/>
  <outline>
    <contour>
      <point x="150" y="596" type="line"/>
      <point x="199" y="671"/>
      <point x="253" y="700"/>
      <point x="373" y="700" type="curve" smooth="yes"/>
      <point x="899" y="700" type="line"/>
      <point x="834" y="590" type="line"/>
      <point x="350" y="590" type="line" smooth="yes"/>
      <point x="275" y="590"/>
      <point x="250" y="575"/>
      <point x="226" y="545" type="curve"/>
    </contour>
    <contour>
      <point x="677" y="307" type="line"/>
      <point x="277" y="307" type="line"/>
      <point x="300" y="414" type="line"/>
      <point x="700" y="414" type="line"/>
    </contour>
    <contour>
      <point x="582" y="101" type="line" smooth="yes"/>
      <point x="663" y="101"/>
      <point x="702" y="113"/>
      <point x="732" y="157" type="curve"/>
      <point x="813" y="107" type="line"/>
      <point x="764" y="32"/>
      <point x="710" y="0"/>
      <point x="591" y="0" type="curve" smooth="yes"/>
      <point x="62" y="0" type="line"/>
      <point x="121" y="101" type="line"/>
    </contour>
  </outline>
</glyph>
<glyph name="Pi" format="1">
  <advance width="734" height="962"/>
  <unicode hex="03A0"/>
  <outline>
    <contour>
      <point x="577" y="0" type="line"/>
      <point x="702" y="590" type="line"/>
      <point x="276" y="590" type="line"/>
      <point x="151" y="0" type="line"/>
      <point x="41" y="0" type="line"/>
      <point x="190" y="700" type="line"/>
      <point x="838" y="700" type="line"/>
      <point x="689" y="0" type="line"/>
    </contour>
  </outline>
</glyph>
<glyph name="Phi" format="2">
  <advance width="856"/>
  <unicode hex="03A6"/>
  <outline>
    <contour>
      <point x="368" y="622" type="line"/>
      <point x="326" y="611"/>
      <point x="269" y="596"/>
      <point x="252" y="518" type="curve" smooth="yes"/>
      <point x="189" y="219" type="line" smooth="yes"/>
      <point x="175" y="154"/>
      <point x="190" y="105"/>
      <point x="291" y="105" type="curve" smooth="yes"/>
      <point x="391" y="105" type="line"/>
      <point x="483" y="535" type="line" smooth="yes"/>
      <point x="496" y="596"/>
      <point x="561" y="712"/>
      <point x="726" y="712" type="curve" smooth="yes"/>
      <point x="894" y="712"/>
      <point x="956" y="624"/>
      <point x="930" y="502" type="curve" smooth="yes"/>
      <point x="871" y="227" type="line" smooth="yes"/>
      <point x="843" y="96"/>
      <point x="757" y="13"/>
      <point x="564" y="13" type="curve" smooth="yes"/>
      <point x="483" y="13" type="line"/>
      <point x="473" y="-35" type="line"/>
      <point x="364" y="-22" type="line"/>
      <point x="372" y="13" type="line"/>
      <point x="299" y="13" type="line" smooth="yes"/>
      <point x="86" y="13"/>
      <point x="55" y="109"/>
      <point x="80" y="227" type="curve" smooth="yes"/>
      <point x="142" y="518" type="line" smooth="yes"/>
      <point x="163" y="618"/>
      <point x="236" y="682"/>
      <point x="358" y="707" type="curve"/>
    </contour>
    <contour>
      <point x="603" y="105" type="line" smooth="yes"/>
      <point x="709" y="105"/>
      <point x="745" y="156"/>
      <point x="759" y="219" type="curve" smooth="yes"/>
      <point x="817" y="492" type="line" smooth="yes"/>
      <point x="834" y="573"/>
      <point x="800" y="611"/>
      <point x="706" y="611" type="curve" smooth="yes"/>
      <point x="649" y="611"/>
      <point x="603" y="580"/>
      <point x="592" y="526" type="curve" smooth="yes"/>
      <point x="502" y="105" type="line"/>
    </contour>
  </outline>
</glyph>
<glyph name="Chi" format="1">
  <advance width="802" height="962"/>
  <unicode hex="03A7"/>
  <outline>
    <contour>
      <point x="497" y="451" type="line"/>
      <point x="756" y="700" type="line"/>
      <point x="909" y="700" type="line"/>
      <point x="553" y="361" type="line"/>
      <point x="778" y="0" type="line"/>
      <point x="625" y="0" type="line"/>
      <point x="458" y="270" type="line"/>
      <point x="178" y="0" type="line"/>
      <point x="28" y="0" type="line"/>
      <point x="403" y="361" type="line"/>
      <point x="192" y="700" type="line"/>
      <point x="345" y="700" type="line"/>
    </contour>
  </outline>
</glyph>
<glyph name="iotatonos" format="1">
  <advance width="190" height="962"/>
  <unicode hex="03AF"/>
  <outline>
    <component base="dotlessi"/>
    <contour>
      <point x="307" y="628" type="curve" smooth="yes"/>
      <point x="233" y="553" type="line"/>
      <point x="189" y="553" type="line"/>
      <point x="244" y="669" type="line" smooth="yes"/>
      <point x="257" y="696"/>
      <point x="291" y="713"/>
      <point x="315" y="698" type="curve" smooth="yes"/>
      <point x="336" y="684"/>
      <point x="330" y="651"/>
    </contour>
  </outline>
</glyph>
<glyph name="alpha" format="2">
  <advance width="625"/>
  <unicode hex="03B1"/>
  <outline>
    <contour>
      <point x="694" y="487" type="line"/>
      <point x="676" y="445"/>
      <point x="669" y="412"/>
      <point x="664" y="390" type="curve" smooth="yes"/>
      <point x="582" y="5" type="line"/>
      <point x="584" y="5"/>
      <point x="390" y="-4"/>
      <point x="276" y="-4" type="curve" smooth="yes"/>
      <point x="80" y="-4"/>
      <point x="45" y="67"/>
      <point x="67" y="170" type="curve" smooth="yes"/>
      <point x="106" y="355" type="line" smooth="yes"/>
      <point x="131" y="471"/>
      <point x="216" y="508"/>
      <point x="353" y="508" type="curve" smooth="yes"/>
      <point x="452" y="508"/>
      <point x="563" y="492"/>
      <point x="589" y="487" type="curve"/>
      <point x="589" y="487"/>
      <point x="597" y="501"/>
      <point x="608" y="512" type="curve"/>
    </contour>
    <contour>
      <point x="178" y="169" type="line" smooth="yes"/>
      <point x="164" y="103"/>
      <point x="215" y="88"/>
      <point x="324" y="88" type="curve" smooth="yes"/>
      <point x="357" y="88"/>
      <point x="450" y="89"/>
      <point x="490" y="92" type="curve"/>
      <point x="553" y="390" type="line"/>
      <point x="522" y="398"/>
      <point x="388" y="407"/>
      <point x="355" y="407" type="curve" smooth="yes"/>
      <point x="298" y="407"/>
      <point x="228" y="404"/>
      <point x="215" y="342" type="curve" smooth="yes"/>
    </contour>
  </outline>
</glyph>
<glyph name="beta" format="2">
  <advance width="630"/>
  <unicode hex="03B2"/>
  <outline>
    <contour>
      <point x="151" y="529" type="line" smooth="yes"/>
      <point x="176" y="645"/>
      <point x="274" y="704"/>
      <point x="438" y="704" type="curve" smooth="yes"/>
      <point x="574" y="704"/>
      <point x="646" y="640"/>
      <point x="625" y="543" type="curve" smooth="yes"/>
      <point x="610" y="471"/>
      <point x="578" y="439"/>
      <point x="514" y="404" type="curve"/>
      <point x="535" y="404" type="line" smooth="yes"/>
      <point x="614" y="404"/>
      <point x="677" y="359"/>
      <point x="658" y="268" type="curve" smooth="yes"/>
      <point x="636" y="163" type="line" smooth="yes"/>
      <point x="608" y="32"/>
      <point x="508" y="-11"/>
      <point x="353" y="-11" type="curve" smooth="yes"/>
      <point x="307" y="-11"/>
      <point x="201" y="-6"/>
      <point x="152" y="0" type="curve"/>
      <point x="106" y="-217" type="line"/>
      <point x="-2" y="-192" type="line"/>
    </contour>
    <contour>
      <point x="264" y="529" type="curve" smooth="yes"/>
      <point x="239" y="407" type="line"/>
      <point x="334" y="418" type="line" smooth="yes"/>
      <point x="430" y="429"/>
      <point x="495" y="459"/>
      <point x="511" y="535" type="curve" smooth="yes"/>
      <point x="523" y="591"/>
      <point x="460" y="601"/>
      <point x="403" y="601" type="curve" smooth="yes"/>
      <point x="329" y="601"/>
      <point x="275" y="578"/>
    </contour>
    <contour>
      <point x="172" y="95" type="line"/>
      <point x="171" y="95"/>
      <point x="283" y="88"/>
      <point x="328" y="89" type="curve" smooth="yes"/>
      <point x="494" y="93"/>
      <point x="512" y="113"/>
      <point x="525" y="174" type="curve" smooth="yes"/>
      <point x="542" y="255" type="line" smooth="yes"/>
      <point x="553" y="306"/>
      <point x="517" y="324"/>
      <point x="433" y="324" type="curve" smooth="yes"/>
      <point x="399" y="324"/>
      <point x="317" y="321"/>
      <point x="283" y="318" type="curve" smooth="yes"/>
      <point x="218" y="312" type="line"/>
    </contour>
  </outline>
</glyph>
<glyph name="epsilon" format="1">
  <advance width="576" height="962"/>
  <unicode hex="03B5"/>
  <outline>
    <contour>
      <point x="532" y="402" type="line"/>
      <point x="490" y="409"/>
      <point x="413" y="417"/>
      <point x="353" y="415" type="curve" smooth="yes"/>
      <point x="293" y="413"/>
      <point x="250" y="402"/>
      <point x="243" y="368" type="curve" smooth="yes"/>
      <point x="237" y="339"/>
      <point x="265" y="302"/>
      <point x="372" y="302" type="curve" smooth="yes"/>
      <point x="508" y="302" type="line"/>
      <point x="451" y="206" type="line"/>
      <point x="268" y="206" type="line" smooth="yes"/>
      <point x="204" y="206"/>
      <point x="177" y="187"/>
      <point x="170" y="154" type="curve" smooth="yes"/>
      <point x="162" y="116"/>
      <point x="207" y="99"/>
      <point x="306" y="99" type="curve" smooth="yes"/>
      <point x="381" y="99"/>
      <point x="487" y="106"/>
      <point x="547" y="123" type="curve"/>
      <point x="554" y="23" type="line"/>
      <point x="469" y="1"/>
      <point x="380" y="-11"/>
      <point x="287" y="-11" type="curve" smooth="yes"/>
      <point x="99" y="-11"/>
      <point x="33" y="51"/>
      <point x="54" y="149" type="curve" smooth="yes"/>
      <point x="69" y="219"/>
      <point x="114" y="253"/>
      <point x="182" y="277" type="curve"/>
      <point x="137" y="303"/>
      <point x="121" y="342"/>
      <point x="139" y="393" type="curve" smooth="yes"/>
      <point x="163" y="463"/>
      <point x="235" y="509"/>
      <point x="385" y="512" type="curve" smooth="yes"/>
      <point x="439" y="513"/>
      <point x="493" y="507"/>
      <point x="549" y="497" type="curve"/>
    </contour>
  </outline>
</glyph>
<glyph name="zeta" format="1">
  <advance width="633" height="962"/>
  <unicode hex="03B6"/>
  <outline>
    <contour>
      <point x="739" y="600" type="line"/>
      <point x="656" y="567"/>
      <point x="568" y="521"/>
      <point x="487" y="471" type="curve" smooth="yes"/>
      <point x="377" y="403"/>
      <point x="213" y="304"/>
      <point x="190" y="196" type="curve" smooth="yes"/>
      <point x="183" y="166"/>
      <point x="189" y="140"/>
      <point x="227" y="120" type="curve" smooth="yes"/>
      <point x="299" y="83"/>
      <point x="479" y="92"/>
      <point x="594" y="92" type="curve"/>
      <point x="529" y="-216" type="line"/>
      <point x="422" y="-191" type="line"/>
      <point x="462" y="-6" type="line"/>
      <point x="330" y="-12"/>
      <point x="174" y="6"/>
      <point x="117" y="50" type="curve" smooth="yes"/>
      <point x="74" y="83"/>
      <point x="57" y="130"/>
      <point x="69" y="190" type="curve" smooth="yes"/>
      <point x="97" y="319"/>
      <point x="224" y="422"/>
      <point x="359" y="509" type="curve" smooth="yes"/>
      <point x="384" y="525"/>
      <point x="452" y="567"/>
      <point x="502" y="590" type="curve"/>
      <point x="259" y="590" type="line"/>
      <point x="283" y="700" type="line"/>
      <point x="710" y="700" type="line"/>
    </contour>
  </outline>
</glyph>
<glyph name="kappa" format="2">
  <advance width="678"/>
  <unicode hex="03BA"/>
  <outline>
    <contour>
      <point x="506" y="158" type="line" smooth="yes"/>
      <point x="549" y="106"/>
      <point x="609" y="98"/>
      <point x="666" y="98" type="curve" smooth="yes"/>
      <point x="670" y="98" type="line"/>
      <point x="649" y="0" type="line"/>
      <point x="595" y="0" type="line" smooth="yes"/>
      <point x="481" y="0"/>
      <point x="420" y="67"/>
      <point x="374" y="125" type="curve"/>
      <point x="277" y="242" type="line"/>
      <point x="193" y="196" type="line"/>
      <point x="151" y="0" type="line"/>
      <point x="40" y="0" type="line"/>
      <point x="149" y="512" type="line"/>
      <point x="257" y="500" type="line"/>
      <point x="220" y="323" type="line"/>
      <point x="544" y="500" type="line"/>
      <point x="752" y="500" type="line"/>
      <point x="386" y="301" type="line"/>
    </contour>
  </outline>
</glyph>
<glyph name="lambda" format="1">
  <advance width="744" height="962"/>
  <unicode hex="03BB"/>
  <outline>
    <contour>
      <point x="636" y="128" type="line"/>
      <point x="654" y="60"/>
      <point x="676" y="50"/>
      <point x="731" y="31" type="curve"/>
      <point x="655" y="-22" type="line"/>
      <point x="580" y="-6"/>
      <point x="533" y="32"/>
      <point x="508" y="143" type="curve" smooth="yes"/>
      <point x="453" y="396" type="line"/>
      <point x="453" y="396"/>
      <point x="402" y="394"/>
      <point x="375" y="353" type="curve" smooth="yes"/>
      <point x="147" y="-1" type="line"/>
      <point x="24" y="-1" type="line"/>
      <point x="257" y="355" type="line" smooth="yes"/>
      <point x="315" y="443"/>
      <point x="357" y="470"/>
      <point x="432" y="489" type="curve"/>
      <point x="416" y="561" type="line" smooth="yes"/>
      <point x="405" y="611"/>
      <point x="325" y="616"/>
      <point x="260" y="616" type="curve"/>
      <point x="312" y="702" type="line"/>
      <point x="512" y="702"/>
      <point x="518" y="620"/>
      <point x="532" y="556" type="curve"/>
    </contour>
  </outline>
</glyph>
<glyph name="rho" format="2">
  <advance width="623"/>
  <unicode hex="03C1"/>
  <outline>
    <contour>
      <point x="624" y="158" type="line" smooth="yes"/>
      <point x="596" y="26"/>
      <point x="487" y="-17"/>
      <point x="321" y="-17" type="curve" smooth="yes"/>
      <point x="260" y="-17"/>
      <point x="191" y="-7"/>
      <point x="149" y="7" type="curve"/>
      <point x="102" y="-217" type="line"/>
      <point x="-6" y="-193" type="line"/>
      <point x="103" y="322" type="line" smooth="yes"/>
      <point x="130" y="449"/>
      <point x="234" y="508"/>
      <point x="427" y="508" type="curve" smooth="yes"/>
      <point x="609" y="508"/>
      <point x="685" y="447"/>
      <point x="658" y="322" type="curve" smooth="yes"/>
    </contour>
    <contour>
      <point x="547" y="318" type="line" smooth="yes"/>
      <point x="559" y="376"/>
      <point x="504" y="397"/>
      <point x="398" y="397" type="curve" smooth="yes"/>
      <point x="293" y="397"/>
      <point x="228" y="378"/>
      <point x="216" y="318" type="curve" smooth="yes"/>
      <point x="176" y="133" type="line" smooth="yes"/>
      <point x="169" y="97"/>
      <point x="280" y="82"/>
      <point x="353" y="82" type="curve" smooth="yes"/>
      <point x="447" y="82"/>
      <point x="502" y="110"/>
      <point x="512" y="156" type="curve" smooth="yes"/>
    </contour>
  </outline>
</glyph>
<glyph name="upsilon" format="1">
  <advance width="628" height="962"/>
  <unicode hex="03C5"/>
  <outline>
    <contour>
      <point x="629" y="180" type="line" smooth="yes"/>
      <point x="604" y="62"/>
      <point x="501" y="-10"/>
      <point x="317" y="-10" type="curve" smooth="yes"/>
      <point x="113" y="-10"/>
      <point x="51" y="78"/>
      <point x="72" y="180" type="curve" smooth="yes"/>
      <point x="140" y="501" type="line"/>
      <point x="251" y="501" type="line"/>
      <point x="183" y="177" type="line" smooth="yes"/>
      <point x="173" y="133"/>
      <point x="216" y="94"/>
      <point x="339" y="94" type="curve" smooth="yes"/>
      <point x="450" y="94"/>
      <point x="506" y="129"/>
      <point x="517" y="177" type="curve" smooth="yes"/>
      <point x="585" y="501" type="line"/>
      <point x="697" y="501" type="line"/>
    </contour>
  </outline>
</glyph>
<glyph name="uni0404" format="2">
  <advance width="608"/>
  <unicode hex="0404"/>
  <outline>
    <component base="C"/>
    <contour>
      <point x="206" y="309" type="line"/>
      <point x="228" y="414" type="line"/>
      <point x="514" y="414" type="line"/>
      <point x="446" y="309" type="line"/>
    </contour>
  </outline>
</glyph>
<glyph name="uni0409" format="2">
  <advance width="1238" height="962"/>
  <unicode hex="0409"/>
  <outline>
    <contour>
      <point x="1077" y="412" type="line" smooth="yes"/>
      <point x="1187" y="412"/>
      <point x="1285" y="363"/>
      <point x="1263" y="261" type="curve" smooth="yes"/>
      <point x="1241" y="156" type="line" smooth="yes"/>
      <point x="1214" y="27"/>
      <point x="1077" y="-12"/>
      <point x="896" y="-12" type="curve" smooth="yes"/>
      <point x="776" y="-12"/>
      <point x="635" y="-1"/>
      <point x="635" y="-1" type="curve"/>
      <point x="764" y="609" type="line"/>
      <point x="694" y="609" type="line" smooth="yes"/>
      <point x="630" y="609"/>
      <point x="592" y="599"/>
      <point x="560" y="549" type="curve" smooth="yes"/>
      <point x="299" y="143" type="line" smooth="yes"/>
      <point x="226" y="30"/>
      <point x="196" y="-3"/>
      <point x="60" y="-23" type="curve"/>
      <point x="17" y="30" type="line"/>
      <point x="80" y="49"/>
      <point x="123" y="59"/>
      <point x="168" y="128" type="curve" smooth="yes"/>
      <point x="450" y="556" type="line" smooth="yes"/>
      <point x="493" y="620"/>
      <point x="538" y="700"/>
      <point x="714" y="700" type="curve" smooth="yes"/>
      <point x="895" y="700" type="line"/>
      <point x="834" y="412" type="line"/>
    </contour>
    <contour>
      <point x="1135" y="184" type="curve" smooth="yes"/>
      <point x="1149" y="250" type="line" smooth="yes"/>
      <point x="1157" y="288"/>
      <point x="1127" y="305"/>
      <point x="1073" y="305" type="curve" smooth="yes"/>
      <point x="811" y="305" type="line"/>
      <point x="766" y="94" type="line"/>
      <point x="796" y="93"/>
      <point x="910" y="90"/>
      <point x="932" y="90" type="curve" smooth="yes"/>
      <point x="1094" y="90"/>
      <point x="1122" y="124"/>
    </contour>
  </outline>
</glyph>
<glyph name="uni040B" format="2">
  <advance width="844"/>
  <unicode hex="040B"/>
  <outline>
    <component base="T" xOffset="3"/>
    <contour>
      <point x="678" y="512" type="curve" smooth="yes"/>
      <point x="797" y="512"/>
      <point x="914" y="478"/>
      <point x="886" y="349" type="curve" smooth="yes"/>
      <point x="812" y="0" type="line"/>
      <point x="701" y="0" type="line"/>
      <point x="774" y="344" type="line" smooth="yes"/>
      <point x="784" y="392"/>
      <point x="740" y="410"/>
      <point x="631" y="410" type="curve" smooth="yes"/>
      <point x="592" y="410"/>
      <point x="497" y="403"/>
      <point x="437" y="387" type="curve"/>
      <point x="457" y="478" type="line"/>
      <point x="488" y="490"/>
      <point x="605" y="512"/>
    </contour>
  </outline>
</glyph>
<glyph name="uni040F" format="2">
  <advance width="733"/>
  <unicode hex="040F"/>
  <outline>
    <contour>
      <point x="838" y="700" type="line"/>
      <point x="689" y="0" type="line"/>
      <point x="421" y="0" type="line"/>
      <point x="383" y="-125" type="line"/>
      <point x="291" y="-125" type="line"/>
      <point x="309" y="0" type="line"/>
      <point x="43" y="0" type="line"/>
      <point x="192" y="700" type="line"/>
      <point x="303" y="700" type="line"/>
      <point x="177" y="110" type="line"/>
      <point x="601" y="110" type="line"/>
      <point x="727" y="700" type="line"/>
    </contour>
  </outline>
</glyph>
<glyph name="uni0416" format="2">
  <advance width="1074" height="962"/>
  <unicode hex="0416"/>
  <outline>
    <contour>
      <point x="924" y="0" type="line"/>
      <point x="780" y="304" type="line"/>
      <point x="657" y="304" type="line"/>
      <point x="592" y="0" type="line"/>
      <point x="481" y="0" type="line"/>
      <point x="546" y="304" type="line"/>
      <point x="423" y="304" type="line"/>
      <point x="155" y="0" type="line"/>
      <point x="18" y="0" type="line"/>
      <point x="330" y="351" type="line"/>
      <point x="191" y="700" type="line"/>
      <point x="327" y="700" type="line"/>
      <point x="445" y="395" type="line"/>
      <point x="565" y="395" type="line"/>
      <point x="630" y="700" type="line"/>
      <point x="741" y="700" type="line"/>
      <point x="676" y="395" type="line"/>
      <point x="796" y="395" type="line"/>
      <point x="1043" y="700" type="line"/>
      <point x="1179" y="700" type="line"/>
      <point x="887" y="351" type="line"/>
      <point x="1054" y="0" type="line"/>
    </contour>
  </outline>
</glyph>
<glyph name="uni041D" format="2">
  <advance width="722" height="962"/>
  <unicode hex="041D"/>
  <outline>
    <contour>
      <point x="655" y="414" type="line"/>
      <point x="716" y="700" type="line"/>
      <point x="827" y="700" type="line"/>
      <point x="678" y="0" type="line"/>
      <point x="567" y="0" type="line"/>
      <point x="633" y="309" type="line"/>
      <point x="218" y="309" type="line"/>
      <point x="152" y="0" type="line"/>
      <point x="41" y="0" type="line"/>
      <point x="190" y="700" type="line"/>
      <point x="301" y="700" type="line"/>
      <point x="240" y="414" type="line"/>
    </contour>
  </outline>
</glyph>
<glyph name="uni0423" format="1">
  <advance width="754" height="962"/>
  <unicode hex="0423"/>
  <outline>
    <contour>
      <point x="757" y="700" type="line"/>
      <point x="887" y="700" type="line"/>
      <point x="408" y="143" type="line" smooth="yes"/>
      <point x="313" y="32"/>
      <point x="257" y="-2"/>
      <point x="115" y="-22" type="curve"/>
      <point x="85" y="46" type="line"/>
      <point x="151" y="58"/>
      <point x="219" y="75"/>
      <point x="277" y="142" type="curve" smooth="yes"/>
      <point x="378" y="258" type="line"/>
      <point x="161" y="700" type="line"/>
      <point x="294" y="700" type="line"/>
      <point x="462" y="356" type="line"/>
    </contour>
  </outline>
</glyph>
<glyph name="uni0426" format="1">
  <advance width="824" height="962"/>
  <unicode hex="0426"/>
  <outline>
    <contour>
      <point x="711" y="110" type="line"/>
      <point x="825" y="110" type="line"/>
      <point x="775" y="-125" type="line"/>
      <point x="678" y="-125" type="line"/>
      <point x="684" y="0" type="line"/>
      <point x="40" y="0" type="line"/>
      <point x="189" y="700" type="line"/>
      <point x="301" y="700" type="line"/>
      <point x="175" y="110" type="line"/>
      <point x="599" y="110" type="line"/>
      <point x="725" y="700" type="line"/>
      <point x="837" y="700" type="line"/>
    </contour>
  </outline>
</glyph>
<glyph name="uni0429" format="1">
  <advance width="1015" height="962"/>
  <unicode hex="0429"/>
  <outline>
    <component base="uni0428"/>
    <contour>
      <point x="884" y="110" type="line"/>
      <point x="1015" y="110" type="line"/>
      <point x="965" y="-125" type="line"/>
      <point x="873" y="-125" type="line"/>
      <point x="877" y="0" type="line"/>
      <point x="861" y="0" type="line"/>
    </contour>
  </outline>
</glyph>
<glyph name="uni042F" format="2">
  <advance width="734"/>
  <unicode hex="042F"/>
  <outline>
    <contour>
      <point x="485" y="700" type="curve" smooth="yes"/>
      <point x="852" y="700" type="line"/>
      <point x="703" y="0" type="line"/>
      <point x="593" y="0" type="line"/>
      <point x="635" y="196" type="line"/>
      <point x="418" y="196" type="line" smooth="yes"/>
      <point x="400" y="196"/>
      <point x="343" y="196"/>
      <point x="326" y="200" type="curve"/>
      <point x="175" y="0" type="line"/>
      <point x="42" y="0" type="line"/>
      <point x="214" y="224" type="line"/>
      <point x="154" y="262"/>
      <point x="122" y="346"/>
      <point x="144" y="453" type="curve" smooth="yes"/>
      <point x="186" y="651"/>
      <point x="328" y="700"/>
    </contour>
    <contour>
      <point x="392" y="301" type="curve" smooth="yes"/>
      <point x="657" y="301" type="line"/>
      <point x="718" y="590" type="line"/>
      <point x="493" y="590" type="line" smooth="yes"/>
      <point x="367" y="590"/>
      <point x="292" y="579"/>
      <point x="265" y="453" type="curve" smooth="yes"/>
      <point x="237" y="318"/>
      <point x="306" y="301"/>
    </contour>
  </outline>
</glyph>
<glyph name="uni0432" format="1">
  <advance width="638" height="962"/>
  <unicode hex="0432"/>
  <outline>
    <contour>
      <point x="582" y="276" type="curve"/>
      <point x="630" y="254"/>
      <point x="654" y="213"/>
      <point x="641" y="150" type="curve" smooth="yes"/>
      <point x="619" y="49"/>
      <point x="532" y="-11"/>
      <point x="343" y="-11" type="curve" smooth="yes"/>
      <point x="250" y="-11"/>
      <point x="34" y="0"/>
      <point x="34" y="0" type="curve"/>
      <point x="140" y="501" type="line"/>
      <point x="140" y="501"/>
      <point x="262" y="512"/>
      <point x="441" y="512" type="curve" smooth="yes"/>
      <point x="618" y="512"/>
      <point x="681" y="469"/>
      <point x="661" y="376" type="curve" smooth="yes"/>
      <point x="651" y="329"/>
      <point x="625" y="296"/>
    </contour>
    <contour>
      <point x="479" y="415" type="curve"/>
      <point x="384" y="416"/>
      <point x="292" y="415"/>
      <point x="233" y="413" type="curve"/>
      <point x="209" y="302" type="line"/>
      <point x="434" y="302" type="line" smooth="yes"/>
      <point x="509" y="302"/>
      <point x="539" y="333"/>
      <point x="545" y="362" type="curve" smooth="yes"/>
      <point x="554" y="406"/>
      <point x="512" y="415"/>
    </contour>
    <contour>
      <point x="417" y="102" type="curve" smooth="yes"/>
      <point x="465" y="102"/>
      <point x="520" y="114"/>
      <point x="529" y="156" type="curve" smooth="yes"/>
      <point x="536" y="189"/>
      <point x="506" y="206"/>
      <point x="462" y="206" type="curve" smooth="yes"/>
      <point x="189" y="206" type="line"/>
      <point x="167" y="104" type="line"/>
      <point x="220" y="103"/>
      <point x="384" y="102"/>
    </contour>
  </outline>
</glyph>
<glyph name="uni0436" format="1">
  <advance width="797" height="962"/>
  <unicode hex="0436"/>
  <outline>
    <contour>
      <point x="880" y="500" type="line"/>
      <point x="694" y="249" type="line"/>
      <point x="779" y="0" type="line"/>
      <point x="650" y="0" type="line"/>
      <point x="583" y="204" type="line"/>
      <point x="495" y="204" type="line"/>
      <point x="452" y="0" type="line"/>
      <point x="341" y="0" type="line"/>
      <point x="384" y="204" type="line"/>
      <point x="298" y="204" type="line"/>
      <point x="143" y="0" type="line"/>
      <point x="15" y="0" type="line"/>
      <point x="205" y="248" type="line"/>
      <point x="126" y="500" type="line"/>
      <point x="252" y="500" type="line"/>
      <point x="314" y="295" type="line"/>
      <point x="404" y="295" type="line"/>
      <point x="447" y="500" type="line"/>
      <point x="558" y="500" type="line"/>
      <point x="515" y="295" type="line"/>
      <point x="604" y="295" type="line"/>
      <point x="755" y="500" type="line"/>
    </contour>
  </outline>
</glyph>
<glyph name="uni0437" format="2">
  <advance width="580"/>
  <unicode hex="0437"/>
  <outline>
    <contour>
      <point x="211" y="402" type="curve"/>
      <point x="234" y="497" type="line"/>
      <point x="294" y="507"/>
      <point x="350" y="513"/>
      <point x="404" y="512" type="curve" smooth="yes"/>
      <point x="552" y="509"/>
      <point x="604" y="463"/>
      <point x="600" y="393" type="curve" smooth="yes"/>
      <point x="596" y="342"/>
      <point x="562" y="303"/>
      <point x="507" y="277" type="curve"/>
      <point x="565" y="253"/>
      <point x="596" y="219"/>
      <point x="581" y="149" type="curve" smooth="yes"/>
      <point x="560" y="51"/>
      <point x="468" y="-11"/>
      <point x="280" y="-11" type="curve" smooth="yes"/>
      <point x="187" y="-11"/>
      <point x="102" y="1"/>
      <point x="27" y="23" type="curve"/>
      <point x="76" y="123" type="line"/>
      <point x="130" y="106"/>
      <point x="232" y="99"/>
      <point x="307" y="99" type="curve" smooth="yes"/>
      <point x="406" y="99"/>
      <point x="459" y="116"/>
      <point x="467" y="154" type="curve" smooth="yes"/>
      <point x="474" y="187"/>
      <point x="455" y="206"/>
      <point x="391" y="206" type="curve" smooth="yes"/>
      <point x="208" y="206" type="line"/>
      <point x="191" y="302" type="line"/>
      <point x="327" y="302" type="line" smooth="yes"/>
      <point x="434" y="302"/>
      <point x="478" y="339"/>
      <point x="484" y="368" type="curve" smooth="yes"/>
      <point x="491" y="402"/>
      <point x="454" y="413"/>
      <point x="394" y="415" type="curve" smooth="yes"/>
      <point x="336" y="417"/>
      <point x="257" y="409"/>
    </contour>
  </outline>
</glyph>
<glyph name="uni043D" format="1">
  <advance width="624" height="962"/>
  <unicode hex="043D"/>
  <outline>
    <contour>
      <point x="547" y="326" type="line"/>
      <point x="584" y="500" type="line"/>
      <point x="695" y="500" type="line"/>
      <point x="589" y="0" type="line"/>
      <point x="478" y="0" type="line"/>
      <point x="525" y="221" type="line"/>
      <point x="195" y="221" type="line"/>
      <point x="148" y="0" type="line"/>
      <point x="36" y="0" type="line"/>
      <point x="142" y="500" type="line"/>
      <point x="254" y="500" type="line"/>
      <point x="217" y="326" type="line"/>
    </contour>
  </outline>
</glyph>
<glyph name="uni0448" format="1">
  <advance width="878" height="962"/>
  <unicode hex="0448"/>
  <outline>
    <contour>
      <point x="828" y="500" type="line"/>
      <point x="939" y="500" type="line"/>
      <point x="833" y="0" type="line"/>
      <point x="44" y="0" type="line"/>
      <point x="150" y="500" type="line"/>
      <point x="260" y="500" type="line"/>
      <point x="177" y="110" type="line"/>
      <point x="404" y="110" type="line"/>
      <point x="487" y="500" type="line"/>
      <point x="597" y="500" type="line"/>
      <point x="514" y="110" type="line"/>
      <point x="745" y="110" type="line"/>
    </contour>
  </outline>
</glyph>
<glyph name="uni044A" format="2">
  <advance width="766" height="962"/>
  <unicode hex="044A"/>
  <outline>
    <component base="uni044C" xOffset="120"/>
    <contour>
      <point x="106" y="500" type="line"/>
      <point x="322" y="500" type="line"/>
      <point x="300" y="393" type="line"/>
      <point x="244" y="393" type="line"/>
      <point x="84" y="395" type="line"/>
    </contour>
  </outline>
</glyph>
<glyph name="uni044C" format="2">
  <advance width="644" height="962"/>
  <unicode hex="044C"/>
  <outline>
    <contour>
      <point x="455" y="303" type="line" smooth="yes"/>
      <point x="590" y="303"/>
      <point x="672" y="258"/>
      <point x="649" y="151" type="curve" smooth="yes"/>
      <point x="628" y="53"/>
      <point x="535" y="-9"/>
      <point x="356" y="-9" type="curve" smooth="yes"/>
      <point x="263" y="-9"/>
      <point x="40" y="2"/>
      <point x="40" y="2" type="curve"/>
      <point x="146" y="500" type="line"/>
      <point x="257" y="500" type="line"/>
      <point x="215" y="303" type="line"/>
    </contour>
    <contour>
      <point x="385" y="101" type="curve" smooth="yes"/>
      <point x="474" y="101"/>
      <point x="524" y="114"/>
      <point x="533" y="154" type="curve" smooth="yes"/>
      <point x="540" y="187"/>
      <point x="511" y="201"/>
      <point x="438" y="201" type="curve" smooth="yes"/>
      <point x="194" y="201" type="line"/>
      <point x="174" y="106" type="line"/>
      <point x="239" y="103"/>
      <point x="340" y="101"/>
    </contour>
  </outline>
</glyph>
<glyph name="uni044E" format="2">
  <advance width="898"/>
  <unicode hex="044E"/>
  <outline>
    <component base="o" xOffset="281"/>
    <component base="dotlessi"/>
    <contour>
      <point x="154" y="296" type="line"/>
      <point x="431" y="296" type="line"/>
      <point x="412" y="205" type="line"/>
      <point x="135" y="205" type="line"/>
    </contour>
  </outline>
</glyph>
<glyph name="uni044F" format="1">
  <advance width="645" height="962"/>
  <unicode hex="044F"/>
  <outline>
    <contour>
      <point x="375" y="510" type="curve" smooth="yes"/>
      <point x="469" y="511"/>
      <point x="706" y="500"/>
      <point x="706" y="500" type="curve"/>
      <point x="600" y="0" type="line"/>
      <point x="490" y="0" type="line"/>
      <point x="532" y="197" type="line"/>
      <point x="308" y="197" type="line" smooth="yes"/>
      <point x="297" y="197"/>
      <point x="288" y="197"/>
      <point x="279" y="197" type="curve"/>
      <point x="164" y="0" type="line"/>
      <point x="33" y="0" type="line"/>
      <point x="167" y="215" type="line"/>
      <point x="117" y="237"/>
      <point x="83" y="282"/>
      <point x="98" y="351" type="curve" smooth="yes"/>
      <point x="121" y="459"/>
      <point x="243" y="509"/>
    </contour>
    <contour>
      <point x="297" y="301" type="curve" smooth="yes"/>
      <point x="554" y="301" type="line"/>
      <point x="574" y="396" type="line"/>
      <point x="470" y="399"/>
      <point x="361" y="401"/>
      <point x="332" y="400" type="curve" smooth="yes"/>
      <point x="282" y="398"/>
      <point x="233" y="386"/>
      <point x="225" y="348" type="curve" smooth="yes"/>
      <point x="218" y="315"/>
      <point x="253" y="301"/>
    </contour>
  </outline>
</glyph>
<glyph name="uni0452" format="2">
  <advance width="638" height="962"/>
  <unicode hex="0452"/>
  <outline>
    <contour>
      <point x="136" y="641" type="line"/>
      <point x="517" y="641" type="line"/>
      <point x="498" y="550" type="line"/>
      <point x="117" y="550" type="line"/>
    </contour>
    <contour>
      <point x="473" y="510" type="curve" smooth="yes"/>
      <point x="592" y="510"/>
      <point x="708" y="474"/>
      <point x="680" y="345" type="curve" smooth="yes"/>
      <point x="594" y="-62" type="line" smooth="yes"/>
      <point x="573" y="-160"/>
      <point x="468" y="-217"/>
      <point x="331" y="-217" type="curve"/>
      <point x="322" y="-127" type="line"/>
      <point x="415" y="-116"/>
      <point x="474" y="-99"/>
      <point x="486" y="-41" type="curve" smooth="yes"/>
      <point x="568" y="343" type="line" smooth="yes"/>
      <point x="578" y="391"/>
      <point x="529" y="409"/>
      <point x="433" y="409" type="curve" smooth="yes"/>
      <point x="399" y="409"/>
      <point x="290" y="402"/>
      <point x="239" y="386" type="curve"/>
      <point x="157" y="-1" type="line"/>
      <point x="47" y="-1" type="line"/>
      <point x="196" y="700" type="line"/>
      <point x="306" y="700" type="line"/>
      <point x="258" y="477" type="line"/>
      <point x="307" y="494"/>
      <point x="380" y="510"/>
    </contour>
  </outline>
</glyph>
<glyph name="uni0454" format="2">
  <advance width="545"/>
  <unicode hex="0454"/>
  <outline>
    <contour>
      <point x="472" y="196" type="line"/>
      <point x="180.548" y="196" type="line"/>
      <point x="176" y="175" type="line" smooth="yes"/>
      <point x="163" y="113"/>
      <point x="235" y="84"/>
      <point x="350" y="84" type="curve" smooth="yes"/>
      <point x="428.993" y="84"/>
      <point x="517.983" y="94.9971"/>
      <point x="515" y="95" type="curve"/>
      <point x="512" y="5" type="line"/>
      <point x="449" y="-6"/>
      <point x="380" y="-13"/>
      <point x="313" y="-12" type="curve" smooth="yes"/>
      <point x="141" y="-8"/>
      <point x="33" y="25"/>
      <point x="63" y="164" type="curve" smooth="yes"/>
      <point x="97" y="325" type="line" smooth="yes"/>
      <point x="123" y="448"/>
      <point x="237" y="515"/>
      <point x="423" y="512" type="curve" smooth="yes"/>
      <point x="489" y="511"/>
      <point x="552" y="498"/>
      <point x="609" y="479" type="curve"/>
      <point x="566" y="393" type="line"/>
      <point x="523" y="405"/>
      <point x="472" y="414"/>
      <point x="417" y="416" type="curve" smooth="yes"/>
      <point x="311" y="420"/>
      <point x="223" y="393"/>
      <point x="210" y="332" type="curve" smooth="yes"/>
      <point x="203.287" y="301" type="line"/>
      <point x="520" y="301" type="line"/>
    </contour>
  </outline>
</glyph>
<glyph name="uni045A" format="1">
  <advance width="1114" height="962"/>
  <unicode hex="045A"/>
  <outline>
    <contour>
      <point x="922" y="303" type="line" smooth="yes"/>
      <point x="1040" y="303"/>
      <point x="1136" y="260"/>
      <point x="1113" y="150" type="curve" smooth="yes"/>
      <point x="1094" y="61"/>
      <point x="994" y="-10"/>
      <point x="816" y="-10" type="curve" smooth="yes"/>
      <point x="723" y="-10"/>
      <point x="510" y="1"/>
      <point x="510" y="1" type="curve"/>
      <point x="553" y="200" type="line"/>
      <point x="185" y="200" type="line"/>
      <point x="142" y="0" type="line"/>
      <point x="31" y="0" type="line"/>
      <point x="137" y="500" type="line"/>
      <point x="248" y="500" type="line"/>
      <point x="206" y="303" type="line"/>
      <point x="574" y="303" type="line"/>
      <point x="616" y="500" type="line"/>
      <point x="727" y="500" type="line"/>
      <point x="685" y="303" type="line"/>
    </contour>
    <contour>
      <point x="844" y="103" type="curve" smooth="yes"/>
      <point x="912" y="103"/>
      <point x="985" y="111"/>
      <point x="994" y="153" type="curve" smooth="yes"/>
      <point x="1001" y="186"/>
      <point x="965" y="200"/>
      <point x="903" y="200" type="curve" smooth="yes"/>
      <point x="664" y="200" type="line"/>
      <point x="643" y="105" type="line"/>
      <point x="690" y="104"/>
      <point x="816" y="103"/>
    </contour>
  </outline>
</glyph>
<glyph name="uni0463" format="1">
  <advance width="688" height="962"/>
  <unicode hex="0463"/>
  <outline>
    <contour>
      <point x="491" y="303" type="line" smooth="yes"/>
      <point x="626" y="303"/>
      <point x="708" y="258"/>
      <point x="685" y="151" type="curve" smooth="yes"/>
      <point x="664" y="53"/>
      <point x="571" y="-9"/>
      <point x="392" y="-9" type="curve" smooth="yes"/>
      <point x="299" y="-9"/>
      <point x="76" y="2"/>
      <point x="76" y="2" type="curve"/>
      <point x="225" y="700" type="line"/>
      <point x="336" y="700" type="line"/>
      <point x="251" y="303" type="line"/>
    </contour>
    <contour>
      <point x="421" y="101" type="curve" smooth="yes"/>
      <point x="510" y="101"/>
      <point x="560" y="114"/>
      <point x="569" y="154" type="curve" smooth="yes"/>
      <point x="576" y="187"/>
      <point x="547" y="201"/>
      <point x="474" y="201" type="curve" smooth="yes"/>
      <point x="230" y="201" type="line"/>
      <point x="210" y="106" type="line"/>
      <point x="275" y="103"/>
      <point x="376" y="101"/>
    </contour>
    <contour>
      <point x="107" y="501" type="line"/>
      <point x="517" y="501" type="line"/>
      <point x="498" y="410" type="line"/>
      <point x="88" y="410" type="line"/>
    </contour>
  </outline>
</glyph>
<glyph name="uni046A" format="2">
  <advance width="866" height="962"/>
  <unicode hex="046A"/>
  <outline>
    <contour>
      <point x="660" y="376" type="line" smooth="yes"/>
      <point x="837" y="376"/>
      <point x="890" y="299"/>
      <point x="865" y="183" type="curve" smooth="yes"/>
      <point x="826" y="0" type="line"/>
      <point x="715" y="0" type="line"/>
      <point x="750" y="165" type="line" smooth="yes"/>
      <point x="770" y="258"/>
      <point x="721" y="283"/>
      <point x="621" y="283" type="curve" smooth="yes"/>
      <point x="542" y="283" type="line"/>
      <point x="482" y="0" type="line"/>
      <point x="371" y="0" type="line"/>
      <point x="431" y="283" type="line"/>
      <point x="347" y="283" type="line" smooth="yes"/>
      <point x="253" y="283"/>
      <point x="200" y="257"/>
      <point x="180" y="167" type="curve" smooth="yes"/>
      <point x="145" y="0" type="line"/>
      <point x="35" y="0" type="line"/>
      <point x="74" y="183" type="line" smooth="yes"/>
      <point x="99" y="300"/>
      <point x="188" y="376"/>
      <point x="356" y="376" type="curve" smooth="yes"/>
      <point x="429" y="376" type="line"/>
      <point x="223" y="700" type="line"/>
      <point x="933" y="700" type="line"/>
      <point x="591" y="376" type="line"/>
    </contour>
    <contour>
      <point x="522" y="433" type="line"/>
      <point x="703" y="609" type="line"/>
      <point x="414" y="609" type="line"/>
    </contour>
  </outline>
  <guideline angle="0" x="0" y="748"/>
</glyph>
<glyph name="uni046B" format="1">
  <advance width="843" height="962"/>
  <unicode hex="046B"/>
  <outline>
    <contour>
      <point x="655" y="302" type="line" smooth="yes"/>
      <point x="818" y="302"/>
      <point x="865" y="228"/>
      <point x="842" y="116" type="curve" smooth="yes"/>
      <point x="817" y="0" type="line"/>
      <point x="707" y="0" type="line"/>
      <point x="724" y="79" type="line" smooth="yes"/>
      <point x="744" y="172"/>
      <point x="719" y="206"/>
      <point x="629" y="206" type="curve" smooth="yes"/>
      <point x="521" y="206" type="line"/>
      <point x="477" y="0" type="line"/>
      <point x="365" y="0" type="line"/>
      <point x="409" y="206" type="line"/>
      <point x="297" y="206" type="line" smooth="yes"/>
      <point x="203" y="206"/>
      <point x="174" y="171"/>
      <point x="155" y="81" type="curve" smooth="yes"/>
      <point x="138" y="0" type="line"/>
      <point x="27" y="0" type="line"/>
      <point x="52" y="116" type="line" smooth="yes"/>
      <point x="75" y="226"/>
      <point x="155" y="302"/>
      <point x="313" y="302" type="curve" smooth="yes"/>
      <point x="386" y="302" type="line"/>
      <point x="172" y="500" type="line"/>
      <point x="881" y="500" type="line"/>
      <point x="581" y="302" type="line"/>
    </contour>
    <contour>
      <point x="491" y="334" type="line"/>
      <point x="616" y="419" type="line"/>
      <point x="402" y="419" type="line"/>
    </contour>
  </outline>
</glyph>
<glyph name="uni0473" format="2">
  <advance width="615" height="962"/>
  <unicode hex="0473"/>
  <outline>
    <contour>
      <point x="624" y="175" type="line" smooth="yes"/>
      <point x="597" y="47"/>
      <point x="495" y="-10"/>
      <point x="312" y="-10" type="curve" smooth="yes"/>
      <point x="114" y="-10"/>
      <point x="45" y="63"/>
      <point x="69" y="175" type="curve" smooth="yes"/>
      <point x="102" y="327" type="line" smooth="yes"/>
      <point x="131" y="462"/>
      <point x="240" y="512"/>
      <point x="423" y="512" type="curve" smooth="yes"/>
      <point x="597" y="512"/>
      <point x="685" y="459"/>
      <point x="657" y="327" type="curve" smooth="yes"/>
    </contour>
    <contour>
      <point x="545" y="325" type="line" smooth="yes"/>
      <point x="555" y="373"/>
      <point x="522" y="406"/>
      <point x="400" y="406" type="curve" smooth="yes"/>
      <point x="278" y="406"/>
      <point x="223" y="376"/>
      <point x="212" y="325" type="curve" smooth="yes"/>
      <point x="180" y="176" type="line"/>
      <point x="172" y="135"/>
      <point x="197" y="95"/>
      <point x="334" y="95" type="curve" smooth="yes"/>
      <point x="469" y="95"/>
      <point x="504" y="131"/>
      <point x="513" y="176" type="curve" smooth="yes"/>
    </contour>
    <contour>
      <point x="138" y="298" type="line"/>
      <point x="602" y="298" type="line"/>
      <point x="582" y="206" type="line"/>
      <point x="119" y="206" type="line"/>
    </contour>
  </outline>
</glyph>
<glyph name="uni0490" format="2">
  <advance width="557"/>
  <unicode hex="0490"/>
  <outline>
    <component base="Gamma"/>
    <contour>
      <point x="616.63" y="812" type="line"/>
      <point x="715.63" y="812" type="line"/>
      <point x="679.913" y="644" type="line"/>
      <point x="574.913" y="644" type="line"/>
      <point x="586.819" y="700" type="line"/>
    </contour>
  </outline>
</glyph>
<glyph name="uni0492" format="2">
  <advance width="559" height="962"/>
  <unicode hex="0492"/>
  <outline>
    <component base="Gamma" xOffset="10"/>
    <contour>
      <point x="68" y="323" type="line"/>
      <point x="87" y="414" type="line"/>
      <point x="547" y="414" type="line"/>
      <point x="528" y="323" type="line"/>
    </contour>
  </outline>
</glyph>
<glyph name="uni0493" format="2">
  <advance width="469" height="962"/>
  <unicode hex="0493"/>
  <outline>
    <component base="uni0433" xOffset="18.5"/>
    <contour>
      <point x="63" y="303" type="line"/>
      <point x="499" y="303" type="line"/>
      <point x="480" y="212" type="line"/>
      <point x="44" y="212" type="line"/>
    </contour>
  </outline>
</glyph>
<glyph name="uni0494" format="2">
  <advance width="650"/>
  <unicode hex="0494"/>
  <outline>
    <component base="Gamma"/>
    <contour>
      <point x="482" y="508" type="curve" smooth="yes"/>
      <point x="621" y="508"/>
      <point x="715" y="472"/>
      <point x="688" y="343" type="curve" smooth="yes"/>
      <point x="642" y="129" type="line" smooth="yes"/>
      <point x="622" y="35"/>
      <point x="543" y="-14"/>
      <point x="413" y="-16" type="curve"/>
      <point x="397" y="72" type="line"/>
      <point x="449" y="72"/>
      <point x="521" y="84"/>
      <point x="533" y="139" type="curve" smooth="yes"/>
      <point x="575" y="341" type="line" smooth="yes"/>
      <point x="584" y="379"/>
      <point x="554" y="407"/>
      <point x="469" y="407" type="curve" smooth="yes"/>
      <point x="428" y="407"/>
      <point x="295" y="400"/>
      <point x="235" y="384" type="curve"/>
      <point x="254" y="475" type="line"/>
      <point x="288" y="487"/>
      <point x="398" y="508"/>
    </contour>
  </outline>
</glyph>
<glyph name="uni0495" format="2">
  <advance width="606" height="962"/>
  <unicode hex="0495"/>
  <outline>
    <component base="uni0433"/>
    <contour>
      <point x="425" y="304" type="curve" smooth="yes"/>
      <point x="544" y="304"/>
      <point x="629" y="268"/>
      <point x="602" y="139" type="curve" smooth="yes"/>
      <point x="558" y="-65" type="line" smooth="yes"/>
      <point x="540" y="-149"/>
      <point x="489" y="-218"/>
      <point x="335" y="-220" type="curve"/>
      <point x="322" y="-132" type="line"/>
      <point x="391" y="-132"/>
      <point x="435" y="-120"/>
      <point x="445" y="-75" type="curve" smooth="yes"/>
      <point x="490" y="137" type="line" smooth="yes"/>
      <point x="498" y="175"/>
      <point x="475" y="203"/>
      <point x="390" y="203" type="curve" smooth="yes"/>
      <point x="356" y="203"/>
      <point x="234" y="196"/>
      <point x="180" y="180" type="curve"/>
      <point x="200" y="271" type="line"/>
      <point x="229" y="283"/>
      <point x="332" y="304"/>
    </contour>
  </outline>
</glyph>
<glyph name="uni0496" format="2">
  <advance width="1089" height="962"/>
  <unicode hex="0496"/>
  <outline>
    <component base="uni0416"/>
    <contour>
      <point x="959" y="110" type="line"/>
      <point x="1085" y="110" type="line"/>
      <point x="1035" y="-125" type="line"/>
      <point x="936" y="-125" type="line"/>
      <point x="953" y="0" type="line"/>
      <point x="936" y="0" type="line"/>
    </contour>
  </outline>
</glyph>
<glyph name="uni049A" format="2">
  <advance width="669"/>
  <unicode hex="049A"/>
  <outline>
    <component base="K"/>
    <contour>
      <point x="544" y="110" type="line"/>
      <point x="673" y="110" type="line"/>
      <point x="623" y="-125" type="line"/>
      <point x="522" y="-125" type="line"/>
      <point x="538" y="0" type="line"/>
      <point x="521" y="0" type="line"/>
    </contour>
  </outline>
</glyph>
<glyph name="uni049B" format="1">
  <advance width="685" height="962"/>
  <unicode hex="049B"/>
  <outline>
    <contour>
      <point x="655" y="0" type="line"/>
      <point x="476" y="0" type="line"/>
      <point x="277" y="242" type="line"/>
      <point x="193" y="196" type="line"/>
      <point x="151" y="0" type="line"/>
      <point x="40" y="0" type="line"/>
      <point x="149" y="512" type="line"/>
      <point x="257" y="500" type="line"/>
      <point x="218" y="316" type="line"/>
      <point x="554" y="501" type="line"/>
      <point x="746" y="501" type="line"/>
      <point x="384" y="301" type="line"/>
    </contour>
    <contour>
      <point x="540" y="110" type="line"/>
      <point x="688" y="110" type="line"/>
      <point x="638" y="-125" type="line"/>
      <point x="539" y="-125" type="line"/>
      <point x="554" y="0" type="line"/>
      <point x="517" y="0" type="line"/>
    </contour>
  </outline>
</glyph>
<glyph name="uni04A4" format="2">
  <advance width="821" height="962"/>
  <unicode hex="04A4"/>
  <outline>
    <component base="H"/>
    <contour>
      <point x="773" y="700" type="line"/>
      <point x="955" y="700" type="line"/>
      <point x="932" y="595" type="line"/>
      <point x="801" y="593" type="line"/>
      <point x="750" y="593" type="line"/>
    </contour>
  </outline>
</glyph>
<glyph name="uni04A5" format="2">
  <advance width="725"/>
  <unicode hex="04A5"/>
  <outline>
    <component base="uni043D"/>
    <contour>
      <point x="639" y="500" type="line"/>
      <point x="823" y="500" type="line"/>
      <point x="801" y="395" type="line"/>
      <point x="670" y="393" type="line"/>
      <point x="617" y="393" type="line"/>
    </contour>
  </outline>
</glyph>
<glyph name="uni04B0" format="2">
  <advance width="726" height="962"/>
  <unicode hex="04B0"/>
  <outline>
    <component base="uni04AE"/>
    <contour>
      <point x="202.75" y="234" type="line"/>
      <point x="621.25" y="234" type="line"/>
      <point x="601.903" y="143" type="line"/>
      <point x="183.403" y="143" type="line"/>
    </contour>
  </outline>
</glyph>
<glyph name="uni04B3" format="1">
  <advance width="744" height="962"/>
  <unicode hex="04B3"/>
  <outline>
    <component base="x"/>
    <contour>
      <point x="609" y="110" type="line"/>
      <point x="746" y="110" type="line"/>
      <point x="696" y="-125" type="line"/>
      <point x="599" y="-125" type="line"/>
      <point x="612" y="0" type="line"/>
      <point x="586" y="0" type="line"/>
    </contour>
  </outline>
</glyph>
<glyph name="uni04BA" format="2">
  <advance width="749"/>
  <unicode hex="04BA"/>
  <outline>
    <contour>
      <point x="302" y="700" type="line"/>
      <point x="240" y="411" type="line"/>
      <point x="302" y="437"/>
      <point x="398" y="454"/>
      <point x="486" y="454" type="curve" smooth="yes"/>
      <point x="686" y="454"/>
      <point x="792" y="381"/>
      <point x="763" y="245" type="curve" smooth="yes"/>
      <point x="711" y="-1" type="line"/>
      <point x="600" y="-1" type="line"/>
      <point x="650" y="236" type="line" smooth="yes"/>
      <point x="669" y="325"/>
      <point x="586" y="358"/>
      <point x="443" y="358" type="curve" smooth="yes"/>
      <point x="358" y="358"/>
      <point x="223" y="330"/>
      <point x="211" y="273" type="curve" smooth="yes"/>
      <point x="153" y="-1" type="line"/>
      <point x="42" y="-1" type="line"/>
      <point x="191" y="700" type="line"/>
    </contour>
  </outline>
</glyph>
<glyph name="uni04BB" format="2">
  <advance width="629" height="962"/>
  <unicode hex="04BB"/>
  <outline>
    <contour>
      <point x="38" y="0" type="line"/>
      <point x="144" y="501" type="line"/>
      <point x="255" y="501" type="line"/>
      <point x="226" y="360" type="line"/>
      <point x="262" y="377"/>
      <point x="335" y="396"/>
      <point x="420" y="396" type="curve" smooth="yes"/>
      <point x="533" y="396"/>
      <point x="669" y="359"/>
      <point x="642" y="230" type="curve" smooth="yes"/>
      <point x="593" y="0" type="line"/>
      <point x="482" y="0" type="line"/>
      <point x="529" y="219" type="line" smooth="yes"/>
      <point x="541" y="277"/>
      <point x="472" y="296"/>
      <point x="380" y="296" type="curve" smooth="yes"/>
      <point x="287" y="296"/>
      <point x="204" y="260"/>
      <point x="194" y="214" type="curve" smooth="yes"/>
      <point x="149" y="0" type="line"/>
    </contour>
  </outline>
</glyph>
<glyph name="uni04F6" format="1">
  <advance width="569" height="962"/>
  <unicode hex="04F6"/>
  <outline>
    <component base="Gamma"/>
    <contour>
      <point x="122" y="110" type="line"/>
      <point x="286" y="110" type="line"/>
      <point x="236" y="-125" type="line"/>
      <point x="141" y="-125" type="line"/>
      <point x="149" y="0" type="line"/>
      <point x="99" y="0" type="line"/>
    </contour>
  </outline>
</glyph>
<glyph name="endash" format="2">
	<advance width="629"/>
	<unicode hex="2013"/>
	<outline>
		<contour>
			<point x="100" y="307" type="line"/>
			<point x="123" y="414" type="line"/>
			<point x="673" y="414" type="line"/>
			<point x="650" y="307" type="line"/>
		</contour>
	</outline>
</glyph>
<glyph name="quoteright" format="1">
  <advance width="174" height="962"/>
  <unicode hex="2019"/>
  <outline>
    <contour>
      <point x="170" y="552" type="line"/>
      <point x="185" y="570"/>
      <point x="193" y="590"/>
      <point x="202" y="610" type="curve"/>
      <point x="177" y="616"/>
      <point x="162" y="641"/>
      <point x="168" y="667" type="curve" smooth="yes"/>
      <point x="175" y="699"/>
      <point x="208" y="727"/>
      <point x="241" y="727" type="curve" smooth="yes"/>
      <point x="275" y="727"/>
      <point x="295" y="699"/>
      <point x="288" y="667" type="curve" smooth="yes"/>
      <point x="268" y="576"/>
      <point x="191" y="534"/>
      <point x="192" y="534" type="curve"/>
    </contour>
  </outline>
</glyph>
<glyph name="Euro" format="2">
  <advance width="608" height="962"/>
  <unicode hex="20AC"/>
  <outline>
    <component base="C"/>
    <contour>
      <point x="85" y="377" type="line"/>
      <point x="108" y="483" type="line"/>
      <point x="626" y="483" type="line"/>
      <point x="603" y="377" type="line"/>
    </contour>
    <contour>
      <point x="53" y="225" type="line"/>
      <point x="75" y="330" type="line"/>
      <point x="593" y="330" type="line"/>
      <point x="571" y="225" type="line"/>
    </contour>
  </outline>
</glyph>
<glyph name="uni20B8" format="2">
  <advance width="610"/>
  <unicode hex="20B8"/>
  <outline>
    <contour>
      <point x="451" y="435" type="line"/>
      <point x="359" y="0" type="line"/>
      <point x="248" y="0" type="line"/>
      <point x="340" y="435" type="line"/>
      <point x="94" y="435" type="line"/>
      <point x="118" y="546" type="line"/>
      <point x="721" y="546" type="line"/>
      <point x="697" y="435" type="line"/>
    </contour>
    <contour>
      <point x="127" y="590" type="line"/>
      <point x="151" y="700" type="line"/>
      <point x="755" y="700" type="line"/>
      <point x="731" y="590" type="line"/>
    </contour>
  </outline>
</glyph>
<glyph name="uni2116" format="2">
  <advance width="1313"/>
  <unicode hex="2116"/>
  <outline>
    <contour>
      <point x="1157" y="513" type="curve" smooth="yes"/>
      <point x="1313" y="513"/>
      <point x="1368" y="456"/>
      <point x="1350" y="371" type="curve" smooth="yes"/>
      <point x="1328" y="267" type="line" smooth="yes"/>
      <point x="1306" y="164"/>
      <point x="1219" y="122"/>
      <point x="1074" y="122" type="curve" smooth="yes"/>
      <point x="936" y="122"/>
      <point x="867" y="167"/>
      <point x="889" y="267" type="curve" smooth="yes"/>
      <point x="910" y="368" type="line" smooth="yes"/>
      <point x="931" y="465"/>
      <point x="1013" y="513"/>
    </contour>
    <contour>
      <point x="1093" y="214" type="curve" smooth="yes"/>
      <point x="1165" y="214"/>
      <point x="1209" y="231"/>
      <point x="1218" y="272" type="curve" smooth="yes"/>
      <point x="1237" y="364" type="line" smooth="yes"/>
      <point x="1244" y="396"/>
      <point x="1216" y="423"/>
      <point x="1138" y="423" type="curve" smooth="yes"/>
      <point x="1063" y="423"/>
      <point x="1028" y="400"/>
      <point x="1020" y="364" type="curve" smooth="yes"/>
      <point x="1001" y="272" type="line" smooth="yes"/>
      <point x="993" y="234"/>
      <point x="1025" y="214"/>
    </contour>
    <contour>
      <point x="832" y="0" type="line"/>
      <point x="848" y="75" type="line"/>
      <point x="1287" y="75" type="line"/>
      <point x="1271" y="0" type="line"/>
    </contour>
    <contour>
      <point x="930" y="700" type="line"/>
      <point x="781" y="0" type="line"/>
      <point x="669" y="0" type="line"/>
      <point x="268" y="543" type="line"/>
      <point x="153" y="0" type="line"/>
      <point x="41" y="0" type="line"/>
      <point x="190" y="700" type="line"/>
      <point x="302" y="700" type="line"/>
      <point x="702" y="156" type="line"/>
      <point x="818" y="700" type="line"/>
    </contour>
  </outline>
</glyph>
<glyph name="Y_upper_alt" format="1">
  <advance width="726" height="962"/>
  <unicode hex="9997"/>
  <outline>
    <contour>
      <point x="481" y="316" type="line"/>
      <point x="414" y="0" type="line"/>
      <point x="303" y="0" type="line"/>
      <point x="370" y="316" type="line"/>
      <point x="154" y="700" type="line"/>
      <point x="286" y="700" type="line"/>
      <point x="446" y="411" type="line"/>
      <point x="731" y="700" type="line"/>
      <point x="864" y="700" type="line"/>
    </contour>
  </outline>
</glyph>
<glyph name="y_lower_alt" format="2">
  <advance width="714" height="962"/>
  <unicode hex="9998"/>
  <outline>
    <contour>
      <point x="113" y="-209" type="line"/>
      <point x="303" y="30" type="line"/>
      <point x="119" y="500" type="line"/>
      <point x="247" y="500" type="line"/>
      <point x="387" y="138" type="line"/>
      <point x="671" y="500" type="line"/>
      <point x="802" y="500" type="line"/>
      <point x="242" y="-209" type="line"/>
    </contour>
  </outline>
</glyph>
<glyph name="fi" format="2">
  <advance width="540"/>
  <unicode hex="FB01"/>
  <outline>
    <contour>
      <point x="620" y="569" type="line"/>
      <point x="553" y="600"/>
      <point x="481" y="606"/>
      <point x="404" y="606" type="curve" smooth="yes"/>
      <point x="321" y="606"/>
      <point x="277" y="581"/>
      <point x="265" y="523" type="curve" smooth="yes"/>
      <point x="260" y="501" type="line"/>
      <point x="449" y="501" type="line"/>
      <point x="401" y="397" type="line"/>
      <point x="238" y="397" type="line"/>
      <point x="154" y="0" type="line"/>
      <point x="41" y="0" type="line"/>
      <point x="156" y="540" type="line" smooth="yes"/>
      <point x="181" y="659"/>
      <point x="298" y="710"/>
      <point x="427" y="710" type="curve" smooth="yes"/>
      <point x="521" y="710"/>
      <point x="591" y="694"/>
      <point x="641" y="666" type="curve"/>
    </contour>
    <contour>
      <point x="499" y="0" type="line"/>
      <point x="388" y="0" type="line"/>
      <point x="494" y="501" type="line"/>
      <point x="605" y="501" type="line"/>
    </contour>
  </outline>
</glyph>
<glyph name="fl" format="1">
  <advance width="532" height="962"/>
  <unicode hex="FB02"/>
  <outline>
    <contour>
      <point x="508" y="599" type="line"/>
      <point x="483" y="609"/>
      <point x="439" y="611"/>
      <point x="412" y="611" type="curve" smooth="yes"/>
      <point x="344" y="611"/>
      <point x="278" y="604"/>
      <point x="267" y="550" type="curve" smooth="yes"/>
      <point x="256" y="501" type="line"/>
      <point x="446" y="501" type="line"/>
      <point x="398" y="397" type="line"/>
      <point x="234" y="397" type="line"/>
      <point x="150" y="0" type="line"/>
      <point x="39" y="0" type="line"/>
      <point x="151" y="528" type="line" smooth="yes"/>
      <point x="177" y="647"/>
      <point x="245" y="710"/>
      <point x="439" y="710" type="curve" smooth="yes"/>
      <point x="505" y="710"/>
      <point x="574" y="701"/>
      <point x="638" y="687" type="curve"/>
      <point x="492" y="0" type="line"/>
      <point x="381" y="0" type="line"/>
    </contour>
  </outline>
</glyph>
<glyph name="ffl" format="1">
  <advance width="900" height="962"/>
  <unicode hex="FB04"/>
  <outline>
    <contour>
      <point x="870" y="592" type="line"/>
      <point x="849" y="596"/>
      <point x="789" y="599"/>
      <point x="770" y="599" type="curve" smooth="yes"/>
      <point x="693" y="599"/>
      <point x="623" y="577"/>
      <point x="614" y="534" type="curve" smooth="yes"/>
      <point x="606" y="501" type="line"/>
      <point x="786" y="501" type="line"/>
      <point x="741" y="397" type="line"/>
      <point x="584" y="397" type="line"/>
      <point x="500" y="0" type="line"/>
      <point x="384" y="0" type="line"/>
      <point x="489" y="495" type="line" smooth="yes"/>
      <point x="500" y="548"/>
      <point x="511" y="566"/>
      <point x="527" y="587" type="curve"/>
      <point x="511" y="595"/>
      <point x="453" y="599"/>
      <point x="418" y="599" type="curve" smooth="yes"/>
      <point x="311" y="599"/>
      <point x="275" y="576"/>
      <point x="265" y="528" type="curve" smooth="yes"/>
      <point x="259" y="501" type="line"/>
      <point x="431" y="501" type="line"/>
      <point x="387" y="397" type="line"/>
      <point x="237" y="397" type="line"/>
      <point x="153" y="0" type="line"/>
      <point x="39" y="0" type="line"/>
      <point x="153" y="538" type="line" smooth="yes"/>
      <point x="166" y="598"/>
      <point x="238" y="705"/>
      <point x="474" y="705" type="curve" smooth="yes"/>
      <point x="526" y="705"/>
      <point x="581" y="698"/>
      <point x="640" y="681" type="curve"/>
      <point x="692" y="701"/>
      <point x="757" y="709"/>
      <point x="826" y="709" type="curve" smooth="yes"/>
      <point x="877" y="709"/>
      <point x="943" y="700"/>
      <point x="1002" y="687" type="curve"/>
      <point x="856" y="0" type="line"/>
      <point x="744" y="0" type="line"/>
    </contour>
  </outline>
</glyph>
<glyph name="caroncomb" format="1">
  <advance width="267" height="962"/>
  <outline>
    <contour>
      <point x="417" y="718" type="line"/>
      <point x="257" y="590" type="line"/>
      <point x="155" y="717" type="line"/>
      <point x="219" y="769" type="line"/>
      <point x="278" y="688" type="line"/>
      <point x="376" y="770" type="line"/>
    </contour>
  </outline>
</glyph>
<glyph name="gamma_gamma" format="1">
  <advance width="1226" height="962"/>
  <outline>
    <component base="gamma" xOffset="505"/>
    <contour>
      <point x="753" y="501" type="line"/>
      <point x="409" y="-55" type="line" smooth="yes"/>
      <point x="356" y="-142"/>
      <point x="296" y="-197"/>
      <point x="133" y="-203" type="curve"/>
      <point x="127" y="-119" type="line"/>
      <point x="198" y="-116"/>
      <point x="251" y="-116"/>
      <point x="293" y="-51" type="curve" smooth="yes"/>
      <point x="322" y="-7" type="line"/>
      <point x="240" y="5"/>
      <point x="191" y="51"/>
      <point x="179" y="139" type="curve" smooth="yes"/>
      <point x="128" y="501" type="line"/>
      <point x="245" y="501" type="line"/>
      <point x="283" y="171" type="line" smooth="yes"/>
      <point x="293" y="84"/>
      <point x="374" y="88"/>
      <point x="376" y="85" type="curve"/>
      <point x="631" y="501" type="line"/>
    </contour>
  </outline>
</glyph>
<glyph name="hungarumlautcomb" format="1">
  <advance width="267" height="962"/>
  <outline>
    <contour>
      <point x="296" y="647" type="curve" smooth="yes"/>
      <point x="221" y="571" type="line"/>
      <point x="176" y="571" type="line"/>
      <point x="231" y="687" type="line" smooth="yes"/>
      <point x="244" y="714"/>
      <point x="281" y="732"/>
      <point x="304" y="718" type="curve" smooth="yes"/>
      <point x="326" y="704"/>
      <point x="319" y="671"/>
    </contour>
    <contour>
      <point x="409" y="647" type="curve" smooth="yes"/>
      <point x="333" y="571" type="line"/>
      <point x="289" y="571" type="line"/>
      <point x="344" y="687" type="line" smooth="yes"/>
      <point x="357" y="714"/>
      <point x="391" y="733"/>
      <point x="416" y="718" type="curve" smooth="yes"/>
      <point x="440" y="705"/>
      <point x="432" y="670"/>
    </contour>
  </outline>
</glyph>
<glyph name="t_t" format="1">
  <advance width="680" height="962"/>
  <outline>
    <component base="t" xOffset="301.5"/>
    <contour>
      <point x="182" y="142" type="line" smooth="yes"/>
      <point x="170" y="85"/>
      <point x="228" y="75"/>
      <point x="317" y="75" type="curve"/>
      <point x="267" y="-13" type="line"/>
      <point x="116" y="-11"/>
      <point x="49" y="36"/>
      <point x="71" y="142" type="curve" smooth="yes"/>
      <point x="190" y="700" type="line"/>
      <point x="301" y="700" type="line"/>
      <point x="258" y="500" type="line"/>
      <point x="459" y="500" type="line"/>
      <point x="438" y="399" type="line"/>
      <point x="237" y="399" type="line"/>
    </contour>
  </outline>
</glyph>
<glyph name="tonoscomb" format="1">
  <advance width="267" height="962"/>
  <outline>
    <contour>
      <point x="351" y="673" type="curve" smooth="yes"/>
      <point x="277" y="598" type="line"/>
      <point x="233" y="598" type="line"/>
      <point x="288" y="714" type="line" smooth="yes"/>
      <point x="301" y="741"/>
      <point x="335" y="758"/>
      <point x="359" y="743" type="curve" smooth="yes"/>
      <point x="380" y="729"/>
      <point x="374" y="696"/>
    </contour>
  </outline>
</glyph>
